<svg width="354" height="183" viewBox="0 0 354 183" fill="none" xmlns="http://www.w3.org/2000/svg">
<path fill-rule="evenodd" clip-rule="evenodd" d="M68.7502 0.944442C66.7382 1.5056 62.0901 2.67401 58.4211 3.5418C38.1864 8.32566 30.0927 11.4243 12.9735 20.9412C3.81635 26.0322 -0.681538 30.9487 0.0836754 35.031C0.455092 37.0112 2.04965 38.196 3.86197 37.8381C5.05283 37.6029 5.45007 37.1822 6.44338 35.1029C7.30801 33.2924 8.1012 32.3453 9.45603 31.5055C10.4674 30.8785 11.7788 29.9263 12.3706 29.3892C14.2685 27.6665 31.2044 18.8413 32.6113 18.8413C32.8467 18.8413 31.7105 20.8275 30.0862 23.2556C28.4624 25.6837 26.3919 29.0266 25.4855 30.6847C24.5791 32.3427 23.3129 34.4776 22.6721 35.4285C22.0308 36.3798 20.7324 38.7054 19.7864 40.5965C18.8404 42.488 17.4137 45.2951 16.6154 46.8347C14.6864 50.5553 11.6066 57.8435 10.8595 60.4559C10.5298 61.6101 9.55932 64.7828 8.70373 67.5068C5.98245 76.1688 5.07004 80.6482 5.06445 85.3795C5.05627 91.7026 6.12017 94.5032 9.36824 96.7126C10.6086 97.5567 11.2623 97.6984 13.1952 97.5429C16.7957 97.2535 16.9377 96.9288 17.2291 88.3132C17.3784 83.8976 17.8325 79.0569 18.3924 75.9048C19.6947 68.5766 22.9419 57.6415 25.1287 53.2194C25.6766 52.1117 26.3333 50.2728 26.589 49.1328C26.8442 47.9928 27.7196 45.6353 28.5347 43.8941C29.3494 42.1529 30.0161 40.6305 30.0161 40.5104C30.0161 40.3906 30.412 39.736 30.8958 39.056C31.38 38.376 32.8992 35.633 34.2725 32.9603C39.3626 23.0537 40.8074 20.5541 43.4112 17.1518C45.9905 13.7809 46.1673 13.6427 48.9132 12.8507C52.9049 11.6991 55.1541 11.2322 62.4675 10.035L68.881 8.98502L70.609 9.86746C73.0217 11.0992 77.2833 10.8524 78.8378 9.39157C81.1606 7.20765 81.1688 3.35059 78.855 1.17528C77.279 -0.306218 73.5411 -0.39149 68.7502 0.944442ZM127.524 44.0302C122.73 46.0027 117.416 50.3287 114.691 54.4791C113.642 56.0782 112.247 59.0334 111.592 61.0468C110.353 64.8552 106.775 71.8135 106.056 71.8135C105.349 71.8135 106.047 64.4732 107.016 61.7328C107.913 59.1932 108.183 56.0898 107.585 55.1854C107.412 54.9222 106.591 54.3594 105.763 53.9343C104.934 53.5092 103.738 52.7775 103.104 52.309C102.182 51.6268 101.499 51.5002 99.6849 51.6746C97.4805 51.8865 97.311 52.0032 93.506 55.9313C91.3541 58.1527 88.4482 61.4236 87.0486 63.2001C82.008 69.5981 72.1476 79.6633 71.5278 79.0435C71.0643 78.5793 72.7932 73.6486 75.0612 68.9655C78.144 62.5998 78.3011 60.9934 76.0666 58.6609C72.1678 54.5915 67.4866 52.9283 62.0832 53.694C57.9731 54.2767 52.543 56.8189 48.9566 59.8396C47.2584 61.2699 45.724 62.272 45.5467 62.0666C45.3694 61.8607 44.9933 60.8788 44.7105 59.884C44.1816 58.0218 42.3921 56.3094 40.9744 56.3094C39.2826 56.3094 36.7842 57.402 35.8008 58.5717C34.5876 60.014 34.4107 62.7647 35.2409 67.2729C35.8176 70.4056 35.0946 74.5465 33.0076 80.0595C31.2775 84.6306 30.7766 87.1759 31.1183 89.663C31.5026 92.458 33.148 94.2082 35.3911 94.2082C38.5307 94.2082 39.4242 92.908 41.657 85.0914C43.9414 77.0943 49.05 70.0228 54.9346 66.7122C58.4994 64.7066 62.8295 62.7694 63.747 62.7694C64.6388 62.7694 64.6259 63.1006 63.6257 65.8754C63.1746 67.1282 62.6737 68.928 62.5127 69.8755C62.3522 70.8229 61.8499 72.6572 61.3967 73.9517C60.3642 76.9018 60.3634 79.2778 61.3941 81.5487C62.4477 83.8696 63.6855 85.0053 66.7842 86.4932C70.1937 88.1302 72.5487 88.4592 74.4368 87.5626C76.3842 86.6379 81.3676 81.482 86.746 74.8282C89.1389 71.8673 91.7823 68.6696 92.6194 67.7221L94.1417 65.9995L94.0496 71.6524C93.9596 77.1576 93.988 77.3514 95.1294 79.0776C96.7906 81.5897 99.2812 83.1177 102.095 83.3511C104.349 83.538 104.449 83.4971 106.571 81.5117C107.764 80.3945 109.363 78.5091 110.125 77.3217L111.509 75.1628L112.49 77.0943C113.688 79.4544 115.567 81.0961 117.853 81.7813C120.476 82.5681 125.451 81.6723 129.218 79.7352C139.844 74.2704 141.502 73.1408 146.866 67.7105C152.747 61.7557 154.454 59.0028 154.743 55.011C154.955 52.0837 154.359 50.7107 152.878 50.7107C152.11 50.7107 150.92 51.6785 148.511 54.2638C138.289 65.232 132.552 69.7179 125.186 72.5004C122.121 73.6585 120.826 73.8027 120.826 72.9862C120.826 71.95 122.152 70.5426 126.197 67.2876C128.423 65.496 130.757 63.4073 131.383 62.6458C132.009 61.8849 134.015 59.7117 135.842 57.8168C141.326 52.1281 141.484 51.8791 141.484 48.9269C141.484 47.5083 141.284 45.9734 141.04 45.516C139.604 42.8317 132.371 42.0362 127.524 44.0302ZM132.446 50.2293C132.446 50.7413 121.865 60.7281 120.8 61.2221C120.336 61.437 119.849 61.505 119.718 61.3732C119.254 60.909 120.478 57.4516 121.614 56.0196C122.889 54.4106 126.89 51.4567 129.087 50.5014C130.697 49.8016 132.446 49.6599 132.446 50.2293ZM236.717 70.363C236.067 70.6378 232.372 75.7756 231.268 77.9376C230.823 78.811 230.127 79.882 229.721 80.3179C229.315 80.7537 228.712 81.6646 228.379 82.3425C227.899 83.3218 226.658 84.0854 222.33 86.0626C219.335 87.4308 215.558 89.0247 213.938 89.6048C199.083 94.9193 195.938 97.4038 197.266 102.779C197.853 105.159 199.386 105.09 204.603 102.449C206.932 101.27 209.904 99.9684 211.206 99.5571C214.328 98.5705 217.211 97.4253 220.889 95.7108C225.33 93.6406 225.52 93.5975 225.171 94.7492C224.559 96.7694 221.028 101.523 215.978 107.128C213.096 110.326 209.666 114.493 208.354 116.388C204.458 122.019 203.901 122.78 202.578 124.284C200.577 126.56 200.261 126.036 199.996 120.014C199.741 114.192 199.364 113.026 197.013 110.789C195.831 109.664 195.339 109.497 193.209 109.497C191.077 109.497 190.353 109.744 187.58 111.413C185.83 112.468 182.809 114.835 180.867 116.674L177.336 120.019L176.816 117.693C176.41 115.879 175.921 115.028 174.598 113.832C171.709 111.22 168.884 111.713 166.249 115.287C165.016 116.959 158.882 123.676 154.609 128.032C151.435 131.269 148.601 133.343 148.074 132.815C147.954 132.696 148.186 131.18 148.588 129.446C148.99 127.712 149.423 124.207 149.551 121.657C149.806 116.577 149.582 115.96 146.994 114.621C144.775 113.473 142.757 114.029 138.399 116.99C135.432 119.006 130.097 124.412 129.219 126.293C128.162 128.554 128.161 130.74 129.215 131.511C130.508 132.458 131.194 132.231 133.062 130.24C135.03 128.141 136.367 127.197 139.296 125.84L141.31 124.906L140.453 127.322C139.404 130.279 139.314 136.577 140.283 139.213C141.089 141.406 143.171 142.874 145.476 142.874C148.965 142.874 152.198 140.346 161.446 130.384C163.755 127.897 165.162 126.594 164.572 127.488C163.195 129.577 162.543 132.667 162.98 135.027C163.37 137.126 164.241 138.262 166.03 139.004C167.096 139.446 167.475 139.394 168.689 138.638C170.054 137.788 173.523 134.09 174.408 132.541C174.645 132.126 175.904 130.59 177.206 129.127C183.544 122.004 188.019 118.107 189.527 118.398C190.396 118.565 190.91 120.556 190.953 123.924C190.984 126.259 192.91 130.522 194.689 132.192C199.634 136.832 205.584 134.364 211.397 125.262C213.887 121.363 217.516 116.585 220.568 113.188L222.669 110.85L223.181 115.578C223.983 122.976 226.639 128.437 229.971 129.538C232.409 130.343 234.573 129.492 237.226 126.684C238.437 125.403 239.614 124.356 239.842 124.358C240.07 124.359 240.578 124.927 240.972 125.619C242.111 127.623 247.258 128.549 249.873 127.22C250.502 126.9 251.73 126.295 252.602 125.875C253.474 125.454 254.733 124.584 255.399 123.941C261.429 118.117 266.012 114.059 266.334 114.259C266.549 114.392 266.724 114.815 266.724 115.2C266.724 115.585 267.118 116.713 267.598 117.707C268.325 119.209 268.783 119.6 270.324 120.032C272.475 120.634 273.72 120.246 277.61 117.755L279.968 116.246L280.239 117.942C280.633 120.41 282.462 121.476 285.657 121.1C287.977 120.827 291.063 119.434 292.762 117.894C293.236 117.464 295.076 116.145 296.851 114.962C298.626 113.778 301.332 111.613 302.865 110.151C304.398 108.688 305.721 107.7 305.805 107.954C305.964 108.429 304.307 114.529 303.67 115.813C303.475 116.208 302.296 116.865 301.051 117.273C295.698 119.026 290.8 122.236 286.473 126.826C283.506 129.973 280.497 135.267 280.497 137.34C280.497 138.736 280.134 138.842 273.349 139.419C265.865 140.055 260.507 140.677 256.61 141.361C254.717 141.693 251.328 142.077 249.079 142.214C246.83 142.351 244.7 142.548 244.345 142.653C243.99 142.757 239.148 143.341 233.585 143.951C228.023 144.561 222.378 145.343 221.042 145.689C219.706 146.036 217.818 146.319 216.847 146.319C215.876 146.319 211.74 146.81 207.656 147.41C203.572 148.01 198.004 148.796 195.282 149.156C186.866 150.269 181.877 151.093 165.585 154.06C163.1 154.513 158.839 155.277 156.117 155.759C137.779 159.007 125.802 161.368 115.661 163.737C112.229 164.539 108.065 165.417 106.408 165.688C101.65 166.467 86.1521 170.565 73.054 174.506C68.9116 175.752 64.7137 176.997 63.7251 177.273C61.7918 177.811 59.7122 179.857 59.7122 181.221C59.7122 182.475 61.1983 182.994 64.8049 183C70.7308 183.01 80.4935 180.913 89.4084 177.717C92.1305 176.741 95.6166 175.56 97.1552 175.093C98.6938 174.627 101.696 173.701 103.826 173.036C113.057 170.154 142.911 163.375 153.104 161.847C154.88 161.58 158.463 160.77 161.066 160.046C163.67 159.322 168.221 158.376 171.18 157.945C177.694 156.995 183.535 156.052 190.057 154.895C192.747 154.418 196.426 153.928 198.234 153.805C200.042 153.683 202.103 153.409 202.813 153.196C203.523 152.984 205.654 152.69 207.547 152.544C209.441 152.398 213.508 151.826 216.585 151.272C222.709 150.171 226.901 149.519 233.155 148.693C235.404 148.396 238.309 147.94 239.611 147.68C242.714 147.06 255.19 145.545 259.838 145.224C261.85 145.084 266.402 144.594 269.952 144.133C273.503 143.672 276.905 143.239 277.512 143.17C278.611 143.047 278.617 143.063 278.622 146.298C278.628 149.904 279.367 151.87 281.156 153.043C283.691 154.705 287.976 152.135 293.444 145.673C295.648 143.068 297.641 140.807 297.871 140.649C298.102 140.491 300.339 140.245 302.843 140.102C311.709 139.596 325.713 137.325 340.324 134.025C345.338 132.893 345.817 132.728 345.38 132.29C344.943 131.853 329.973 133.256 314.839 135.153C312.778 135.412 310.715 135.503 310.254 135.356C309.793 135.21 307.444 135.404 305.034 135.788C302.624 136.171 300.556 136.388 300.438 136.271C300.154 135.987 300.831 134.742 303.521 130.6C304.752 128.705 306.407 125.729 307.199 123.987C308.505 121.117 308.966 120.573 312.106 118.19C314.013 116.744 316.557 114.634 317.761 113.502L319.95 111.444L320.989 112.557C322.598 114.281 324.128 114.88 326.92 114.88C331.144 114.88 335.543 112.574 343.762 106.051C350.31 100.854 353.076 97.5222 353.858 93.8852C354.675 90.0902 351.754 87.3464 350.299 90.542C350.042 91.1053 349.387 92.098 348.842 92.7487C347.385 94.4873 341.876 99.7901 341.517 99.7992C341.347 99.8035 339.863 101.018 338.219 102.499C334.498 105.849 329.829 108.44 327.31 108.553C325.543 108.632 325.475 108.588 325.556 107.424C325.603 106.751 326.082 105.86 326.632 105.422C327.177 104.988 328.204 104.125 328.914 103.505C329.624 102.884 331.133 101.652 332.268 100.768C338.259 96.0989 339.972 94.5954 341.327 92.8198C343.403 90.0979 343.762 89.3193 343.762 87.5415C343.762 84.1543 340.2 82.8313 334.392 84.0625C330.738 84.8369 328.49 85.9028 325.356 88.3481C322.586 90.5092 320.032 95.3086 319.03 100.238C318.668 102.014 318.266 103.925 318.136 104.484C317.892 105.534 314.008 109.913 312.7 110.614C312.024 110.976 312.034 110.792 312.818 108.531C314.476 103.747 315.894 96.7901 315.697 94.4089C315.452 91.4588 314.45 89.9015 312.796 89.9015C312.108 89.9015 311.266 90.181 310.925 90.5226C310.384 91.0631 310.186 91.0075 309.39 90.0919C308.832 89.4485 308.016 89.0419 307.291 89.0449C304.84 89.0544 299.477 91.2293 295.129 93.9765C292.938 95.3611 285.231 101.873 285.231 102.34C285.231 102.79 275.674 111.232 274.794 111.559C274.129 111.806 274.041 111.535 274.041 109.256C274.041 107.226 274.325 106.109 275.368 104.043C276.341 102.114 276.701 100.797 276.716 99.1066C276.74 96.3573 276.148 95.5002 274.224 95.5002C272.07 95.5002 270.814 96.2582 269.709 98.2268L268.711 100.003L268.362 98.7208C267.462 95.4059 264.978 94.4266 260.659 95.6833C255.869 97.0765 250.172 101.987 243.605 110.382C237.778 117.83 236.928 118.779 235.144 119.825C232.734 121.238 232.032 121.193 231.193 119.569C228.125 113.631 228.947 105.17 233.434 96.508C234.273 94.8878 235.244 92.9808 235.592 92.2702C237.136 89.113 237.417 88.8382 240.329 87.6474C241.946 86.9864 244.14 86.172 245.205 85.8382C246.271 85.504 248.344 84.7495 249.812 84.1607C252.08 83.2516 252.558 83.1818 252.985 83.6965C253.757 84.6267 254.833 84.4226 256.031 83.1185C258.35 80.5939 260.134 76.4393 259.609 74.7851C259.351 73.9694 259.071 73.888 257.08 74.0534C255.85 74.1555 253.981 74.6507 252.929 75.1542C250.335 76.3954 246.689 77.8135 244.345 78.494C243.28 78.8032 241.953 79.1981 241.397 79.3721L240.386 79.6883L240.666 76.5043C240.894 73.9001 240.804 73.0465 240.17 71.8135C239.413 70.3415 238.086 69.7837 236.717 70.363ZM147.079 77.3687C145.112 78.6198 139.237 84.5165 136.104 88.3834C134.257 90.6638 129.864 97.2298 129.864 97.7104C129.864 97.8706 129.158 99.2315 128.296 100.735C127.433 102.238 125.958 104.921 125.017 106.698C124.077 108.474 122.811 110.8 122.204 111.866C120.177 115.425 117.383 121.049 117.383 121.568C117.383 122.418 108.887 139.113 107.746 140.505C106.146 142.458 105.53 141.524 105.616 137.277C105.701 133.124 107.754 126.084 112.651 113.158C113.414 111.144 114.273 108.722 114.561 107.774C114.848 106.827 115.291 105.567 115.545 104.975C118.48 98.1295 119.192 95.9679 119.209 93.849C119.224 91.9614 119.036 91.3602 118.157 90.4804C115.76 88.082 111.396 88.4463 107.783 91.3464C101.043 96.7574 96.1154 101.643 91.0787 107.907C88.4977 111.118 88.1676 112.061 89.0425 113.724C89.7393 115.05 90.2411 115.297 92.2467 115.305C94.4804 115.313 95.3596 114.386 95.8072 111.553C95.9936 110.373 96.5513 108.847 97.0467 108.161C98.6877 105.888 104.089 101.154 106.516 99.8616C107.315 99.4361 107.484 99.4568 107.484 99.9805C107.484 101.12 106.155 106.383 105.579 107.523C105.27 108.135 104.772 109.702 104.472 111.004C104.173 112.307 103.088 115.857 102.061 118.892C100.188 124.434 99.725 126.432 98.6516 133.61C98.1162 137.189 98.1364 137.734 98.912 140.633C99.8597 144.176 101.17 146.498 103.174 148.185C104.836 149.585 106.133 149.944 108.422 149.637C110.94 149.298 112.96 147.432 115.21 143.364C116.287 141.417 118.895 136.779 121.006 133.058C125.119 125.808 125.517 125.056 126.628 122.439C127.025 121.503 127.99 119.759 128.773 118.563C129.556 117.367 130.925 115.031 131.816 113.373C132.707 111.715 134.521 108.764 135.846 106.817C137.172 104.869 138.883 102.253 139.648 101.003C140.413 99.7527 141.694 98.1488 142.496 97.4382C143.296 96.7276 144.471 95.371 145.105 94.4236C147.101 91.4403 149.557 89.2099 152.37 87.8244C154.628 86.712 155.254 86.1556 156.056 84.5479C157.094 82.4686 157.028 80.5276 155.84 78.1788C155.034 76.5857 154.001 76.1189 151.304 76.1283C149.534 76.1348 148.577 76.4156 147.079 77.3687ZM336.446 89.3977C336.446 89.8318 335.624 90.7775 334.617 91.5015C333.611 92.225 331.355 94.1027 329.604 95.6747C327.853 97.2462 326.35 98.4615 326.264 98.3754C326.178 98.2897 326.449 97.281 326.866 96.1346C328.143 92.6182 331.06 90.3111 336.338 88.6436C336.398 88.6251 336.446 88.9644 336.446 89.3977ZM147.209 95.0747C146.689 95.2845 145.942 96.0786 145.548 96.84C144.66 98.5593 145.154 100.589 146.999 102.8C149.344 105.608 152.907 104.471 153.405 100.757C153.712 98.4693 153.369 97.204 152.059 95.7896C150.94 94.5808 149.106 94.3103 147.209 95.0747ZM301.88 101.846C298.792 105.844 294.089 109.971 289.311 112.875C285.159 115.398 284.85 115.041 287.109 110.325C289.395 105.551 294.856 101.175 301.267 98.9787C304.258 97.9542 304.394 98.5911 301.88 101.846ZM265.807 105.054C263.46 108.353 251.282 119.93 248.711 121.307C248.086 121.642 247.747 121.595 247.354 121.122C246.933 120.613 247.061 120.049 248.012 118.224C250.712 113.041 256.083 106.545 258.541 105.487C260.474 104.655 264.007 103.767 265.57 103.72L266.783 103.683L265.807 105.054ZM299.433 125.073C299.433 126.378 296.56 131.049 294.318 133.39C293.104 134.657 292.161 135.993 292.222 136.359C292.308 136.884 291.556 137.137 288.682 137.553C286.675 137.844 284.962 138.011 284.876 137.924C284.789 137.838 285.387 136.542 286.205 135.045C288.544 130.761 295.878 124.704 299.11 124.387C299.288 124.369 299.433 124.678 299.433 125.073ZM286.623 142.886C284.997 144.366 283.94 144.534 283.94 143.313C283.94 142.732 284.318 142.376 285.123 142.198C285.774 142.055 286.5 141.872 286.737 141.793C287.931 141.395 287.896 141.727 286.623 142.886Z" fill="#3C444B"/>
</svg>
