<svg width="200" height="82" viewBox="0 0 200 82" fill="none" xmlns="http://www.w3.org/2000/svg">
<rect width="200" height="82" rx="14" fill="#DBE9ED"/>
<path d="M50.4456 28H69.7585C71.6668 28 73.2041 29.5373 73.2041 31.4456V50.7585C73.2041 52.6668 71.6668 54.2041 69.7585 54.2041H50.4456C48.5373 54.2041 47 52.6668 47 50.7585V31.4456C47 29.5549 48.5373 28 50.4456 28Z" fill="#3B434A"/>
<path d="M62.8336 33.8504V32.9492C62.8336 32.3131 62.3212 31.8184 61.7028 31.8184H59.0523C58.4162 31.8184 57.9215 32.3308 57.9215 32.9492V33.868C57.9215 33.9741 58.0098 34.0447 58.1158 34.0271C58.858 33.815 59.6354 33.709 60.4306 33.709C61.1904 33.709 61.9325 33.815 62.6569 34.0094C62.7453 34.0271 62.8336 33.9564 62.8336 33.8504ZM55.5714 35.0342L55.112 34.5748C54.6703 34.1331 53.9458 34.1331 53.5041 34.5748L52.9563 35.1226C52.5146 35.5643 52.5146 36.2888 52.9563 36.7305L53.398 37.1723C53.4687 37.2429 53.5747 37.2253 53.6454 37.1546C53.9105 36.8012 54.1932 36.4478 54.5112 36.1298C54.8293 35.8117 55.165 35.5113 55.5361 35.2639C55.6244 35.2109 55.6244 35.1049 55.5714 35.0342ZM60.4129 37.8967V41.784C60.4129 41.8901 60.5366 41.9784 60.6426 41.9254L64.1059 40.1408C64.1765 40.1054 64.2119 39.9994 64.1765 39.9287C63.4521 38.6742 62.1269 37.8084 60.5896 37.7554C60.4836 37.7377 60.4129 37.8084 60.4129 37.8967ZM60.4129 47.2616C57.5327 47.2616 55.1827 44.9292 55.1827 42.0491C55.1827 39.1689 57.5327 36.8365 60.4129 36.8365C63.2931 36.8365 65.6431 39.1689 65.6431 42.0491C65.6431 44.9292 63.2931 47.2616 60.4129 47.2616ZM60.4129 34.6278C56.3135 34.6278 52.9916 37.9497 52.9916 42.0314C52.9916 46.1308 56.3135 49.435 60.4129 49.435C64.5123 49.435 67.8342 46.1131 67.8342 42.0314C67.8342 37.9497 64.5123 34.6278 60.4129 34.6278Z" fill="white"/>
<path d="M99.2494 48.7971C94.1429 48.8148 94.1429 44.6801 94.1429 44.0263V28.5123L97.2527 28.0176V43.4432C97.2527 43.8143 97.2527 46.182 99.2494 46.1997V48.7971ZM86.6333 46.2527C87.5874 46.2527 88.2942 46.1997 88.789 46.0936V42.9308C88.5416 42.8601 88.2942 42.8071 88.0468 42.7717C87.6934 42.7187 87.3224 42.6834 86.969 42.6834C86.6333 42.6834 86.2799 42.7011 85.9265 42.7717C85.5731 42.8248 85.255 42.9131 84.9723 43.0545C84.6896 43.1958 84.4599 43.3725 84.3009 43.6199C84.1242 43.8673 84.0535 44.0086 84.0535 44.3797C84.0535 45.1041 84.3009 45.5282 84.7779 45.8109C85.202 46.1113 85.8381 46.2527 86.6333 46.2527ZM86.3505 34.9618C87.3754 34.9618 88.2412 35.0854 88.948 35.3505C89.6548 35.5979 90.2202 35.9689 90.6266 36.4107C91.0507 36.8701 91.3334 37.4885 91.5101 38.1423C91.6868 38.7961 91.7751 39.5029 91.7751 40.298V48.3024C91.2981 48.4084 90.5736 48.5321 89.6018 48.6734C88.6299 48.8148 87.5344 48.8854 86.3329 48.8854C85.5377 48.8854 84.7956 48.7971 84.1242 48.6557C83.4527 48.4967 82.8873 48.267 82.4102 47.9136C81.9331 47.5779 81.5797 47.1362 81.297 46.5884C81.032 46.0406 80.8906 45.2808 80.8906 44.4857C80.8906 43.7259 81.0497 43.2312 81.3324 42.7187C81.6328 42.1886 82.0392 41.7646 82.5516 41.4288C83.064 41.0931 83.6648 40.8634 84.3362 40.7221C85.0077 40.5807 85.7144 40.51 86.4566 40.51C86.7923 40.51 87.1634 40.5277 87.5344 40.5807C87.9055 40.616 88.3119 40.6867 88.7536 40.7927V40.2803C88.7536 39.9269 88.7183 39.5735 88.6299 39.2555C88.5416 38.9374 88.4002 38.6547 88.1882 38.4073C87.9762 38.16 87.6934 37.9656 87.3401 37.8419C86.9867 37.7006 86.5449 37.5945 86.0148 37.5945C85.2904 37.5945 84.6366 37.6829 84.0535 37.7889C83.4527 37.8949 82.958 38.0186 82.5869 38.1423L82.2158 35.5979C82.6046 35.4565 83.1877 35.3328 83.9298 35.1915C84.6896 35.0324 85.5024 34.9618 86.3505 34.9618ZM147.841 46.1643C148.795 46.1643 149.502 46.1113 149.997 46.0053V42.8424C149.82 42.7894 149.573 42.7364 149.255 42.6834C148.901 42.6304 148.53 42.595 148.177 42.595C147.841 42.595 147.488 42.6127 147.134 42.6834C146.781 42.7364 146.463 42.8248 146.18 42.9661C145.897 43.1075 145.668 43.2842 145.509 43.5315C145.332 43.7789 145.261 43.9203 145.261 44.2913C145.261 45.0158 145.509 45.4399 145.986 45.7226C146.445 46.0406 147.063 46.1643 147.841 46.1643ZM147.576 34.8911C148.601 34.8911 149.467 35.0148 150.173 35.2798C150.88 35.5272 151.446 35.8982 151.852 36.34C152.258 36.7994 152.559 37.4178 152.735 38.0716C152.912 38.7254 153 39.4322 153 40.2273V48.2317C152.523 48.3377 151.799 48.4614 150.827 48.6027C149.855 48.7441 148.76 48.8148 147.558 48.8148C146.763 48.8148 146.021 48.7264 145.35 48.5851C144.678 48.426 144.113 48.1963 143.636 47.8429C143.158 47.5072 142.805 47.0655 142.522 46.5177C142.257 45.97 142.116 45.2102 142.116 44.415C142.116 43.6552 142.275 43.1605 142.558 42.6481C142.858 42.118 143.265 41.6939 143.777 41.3582C144.289 41.0224 144.89 40.7927 145.562 40.6514C146.233 40.51 146.94 40.4394 147.682 40.4394C148.018 40.4394 148.389 40.457 148.76 40.51C149.149 40.5454 149.537 40.616 149.961 40.7221V40.2096C149.961 39.8563 149.926 39.5029 149.838 39.1848C149.749 38.8668 149.608 38.584 149.396 38.3367C149.184 38.0893 148.901 37.8949 148.548 37.7712C148.194 37.6299 147.753 37.5415 147.223 37.5415C146.498 37.5415 145.844 37.6299 145.261 37.7359C144.66 37.8419 144.166 37.9656 143.795 38.0893L143.424 35.5449C143.812 35.4035 144.395 35.2798 145.137 35.1385C145.915 34.9618 146.728 34.8911 147.576 34.8911ZM138.229 33.4068C139.271 33.4068 140.119 32.5587 140.119 31.5162C140.119 30.4737 139.271 29.6255 138.229 29.6255C137.186 29.6255 136.338 30.4737 136.338 31.5162C136.338 32.5764 137.186 33.4068 138.229 33.4068ZM139.801 48.7971H136.674V35.3682L139.801 34.8734V48.7971ZM134.324 48.7971C129.217 48.8148 129.217 44.6801 129.217 44.0263V28.5123L132.327 28.0176V43.4432C132.327 43.8143 132.327 46.182 134.324 46.1997V48.7971ZM124.199 41.9236C124.199 40.5807 123.899 39.4499 123.333 38.6724C122.768 37.8773 121.955 37.4885 120.93 37.4885C119.905 37.4885 119.092 37.8773 118.527 38.6724C117.962 39.4675 117.679 40.563 117.679 41.9236C117.679 43.2842 117.962 44.203 118.545 44.9805C119.11 45.7756 119.923 46.1643 120.948 46.1643C121.973 46.1643 122.785 45.7756 123.351 44.9805C123.916 44.1853 124.199 43.2842 124.199 41.9236ZM127.379 41.9236C127.379 42.9661 127.22 43.7612 126.92 44.6271C126.602 45.4929 126.178 46.235 125.613 46.8534C125.047 47.4719 124.376 47.949 123.581 48.2847C122.785 48.6204 121.566 48.8148 120.948 48.8148C120.329 48.8148 119.11 48.6381 118.333 48.2847C117.537 47.949 116.866 47.4719 116.301 46.8534C115.735 46.235 115.293 45.4929 114.975 44.6271C114.657 43.7612 114.498 42.9661 114.498 41.9236C114.498 40.8811 114.64 39.8563 114.958 39.0081C115.276 38.1423 115.718 37.4178 116.301 36.7994C116.866 36.181 117.555 35.7216 118.333 35.3858C119.128 35.0501 119.994 34.8911 120.93 34.8911C121.867 34.8911 122.732 35.0501 123.528 35.3858C124.323 35.7216 125.012 36.181 125.56 36.7994C126.125 37.4178 126.567 38.1423 126.885 39.0081C127.22 39.8563 127.379 40.8634 127.379 41.9236ZM103.95 41.9236C103.95 43.2312 104.232 44.6801 104.815 45.2808C105.381 45.8816 106.123 46.182 107.042 46.182C107.536 46.182 108.014 46.1113 108.438 45.97C108.879 45.8286 109.233 45.6696 109.498 45.4929V37.7712C109.268 37.7182 108.349 37.5239 107.448 37.5062C106.317 37.4708 105.451 37.9303 104.851 38.6724C104.25 39.4145 103.95 40.7044 103.95 41.9236ZM112.608 48.055C112.608 50.1753 112.06 51.7303 110.982 52.7198C109.887 53.7093 108.226 54.204 105.982 54.204C105.169 54.204 103.455 54.045 102.094 53.7446L102.589 51.2709C103.72 51.5006 105.239 51.5712 106.017 51.5712C107.271 51.5712 108.155 51.3239 108.685 50.8114C109.215 50.299 109.48 49.5392 109.48 48.5497V48.0373C109.162 48.1963 108.756 48.3377 108.261 48.4967C107.766 48.6557 107.183 48.7264 106.529 48.7264C105.663 48.7264 104.886 48.5851 104.179 48.32C103.472 48.055 102.854 47.6486 102.359 47.1362C101.865 46.6061 101.458 45.9523 101.175 45.1571C100.893 44.362 100.751 42.9661 100.751 41.9236C100.751 40.9518 100.91 39.7326 101.193 38.9198C101.493 38.107 101.918 37.4178 102.501 36.8347C103.066 36.2516 103.773 35.8099 104.603 35.4742C105.416 35.1561 106.388 34.9441 107.43 34.9441C108.438 34.9441 109.374 35.0678 110.275 35.2268C111.176 35.3858 111.954 35.5272 112.59 35.7039L112.608 48.055Z" fill="#3B434A"/>
</svg>
