<svg width="231" height="82" viewBox="0 0 231 82" fill="none" xmlns="http://www.w3.org/2000/svg">
<rect width="231" height="82" rx="14" fill="#DBE9ED"/>
<path fill-rule="evenodd" clip-rule="evenodd" d="M94.6005 25.1666C92.4445 25.7524 90.6094 27.9532 90.4726 30.1169L90.4154 31.0233L91.1055 30.9564C93.3079 30.7432 95.3737 28.4199 95.5484 25.9599C95.6266 24.858 95.6537 24.8806 94.6005 25.1666ZM108.963 28.4826C108.353 28.5547 107.775 28.6422 107.679 28.677C107.541 28.7273 107.512 30.9308 107.541 39.3296L107.576 49.9188L108.928 49.9588L110.28 49.9988V45.6968V41.3948L112.006 41.4439C114.977 41.5284 117.158 40.8682 118.745 39.4038C120.14 38.1177 120.769 36.3883 120.639 34.1983C120.556 32.8057 120.307 32.0302 119.614 31.0105C118.948 30.0304 117.837 29.2491 116.46 28.7934C115.432 28.4526 115.13 28.42 112.707 28.3873C111.258 28.3676 109.573 28.4105 108.963 28.4826ZM114.163 30.5713C116.587 30.9579 117.914 32.4393 117.903 34.7472C117.892 36.9146 116.752 38.4275 114.683 39.0203C113.868 39.2539 111.372 39.3351 110.646 39.1515L110.28 39.0588V34.8846V30.7102L110.592 30.64C111.518 30.4315 113.097 30.4012 114.163 30.5713ZM85.205 31.5531C82.9655 31.9972 81.1995 33.6953 80.37 36.2026C80.0288 37.2333 79.9935 37.5298 80.0008 39.2988C80.0093 41.3406 80.2601 42.8093 80.8955 44.5389C81.3746 45.8428 82.4775 47.8268 83.3581 48.9689C85.1926 51.3481 86.258 51.687 88.7168 50.6729C89.6461 50.2894 90.0061 50.2147 90.9355 50.2113C91.8818 50.208 92.2182 50.2777 93.2236 50.6855C95.2952 51.5257 96.3921 51.3046 97.788 49.7656C98.7434 48.7121 99.4608 47.6319 100.206 46.1241C101.103 44.3088 101.102 44.3229 100.463 43.9947C99.7365 43.6211 98.5246 42.2625 98.1141 41.3612C96.955 38.8161 97.614 36.1572 99.8661 34.2919L100.338 33.9014L99.6581 33.1998C97.8659 31.3493 95.4092 30.9455 92.4886 32.0211C90.8676 32.618 90.4714 32.6347 89.24 32.1575C87.3102 31.4097 86.523 31.2918 85.205 31.5531ZM126.366 34.3986C125.349 34.6157 124.053 35.0808 123.662 35.3693C123.423 35.5446 123.416 35.6157 123.579 36.1644C123.678 36.4958 123.812 36.9092 123.878 37.0831L123.997 37.3993L124.592 37.067C125.587 36.5118 126.832 36.2595 128.27 36.3216C129.422 36.3714 129.609 36.4189 130.142 36.7961C130.908 37.3378 131.366 38.1818 131.46 39.2236L131.534 40.0447L130.926 40.1196C130.592 40.1607 129.806 40.23 129.18 40.2734C127.857 40.3652 125.874 40.9069 124.979 41.4211C124.096 41.9286 123.215 42.8154 122.784 43.6306C122.451 44.2599 122.414 44.4751 122.414 45.7966C122.414 47.1618 122.443 47.3158 122.825 48.0123C123.283 48.8441 123.894 49.4115 124.836 49.8793C125.369 50.1437 125.697 50.1918 126.99 50.1947C128.421 50.198 128.573 50.1707 129.448 49.7533C129.961 49.5084 130.689 49.0167 131.067 48.6605L131.755 48.013L131.832 48.6165C131.875 48.9485 131.926 49.3774 131.946 49.5695C131.981 49.9085 132.017 49.92 133.171 49.9588L134.36 49.9989L134.314 46.5352C134.228 40.017 134.168 38.6382 133.935 37.9131C133.43 36.3369 132.352 35.1379 130.963 34.6072C129.96 34.224 127.671 34.1202 126.366 34.3986ZM136.754 35.1416C136.898 35.5066 138.213 38.8237 139.676 42.5127C141.843 47.9734 142.324 49.3068 142.263 49.6866C142.149 50.3972 141.022 52.1052 140.099 52.9668C139.645 53.3904 138.846 53.9522 138.324 54.2154C137.802 54.4785 137.391 54.7513 137.41 54.8216C137.932 56.728 138.047 56.9843 138.342 56.8981C139.679 56.5075 141.466 55.3379 142.321 54.294C144.107 52.115 144.839 50.4891 149.164 39.0892L150.888 34.5477L149.49 34.5076C148.721 34.4855 148.048 34.5169 147.993 34.5774C147.939 34.6379 147.035 37.297 145.986 40.4865C144.936 43.6761 144.033 46.4114 143.978 46.5651C143.901 46.7828 143.826 46.6592 143.638 46.0062C143.505 45.5451 142.585 42.9354 141.592 40.2071C140.599 37.4787 139.725 35.0735 139.65 34.8621L139.513 34.4778H138.003H136.493L136.754 35.1416ZM131.606 43.472C131.661 45.3477 131.416 46.1708 130.545 47.0491C129.698 47.9024 128.798 48.2237 127.468 48.1479C125.899 48.0587 125.22 47.3594 125.145 45.7545C125.105 44.9049 125.149 44.6509 125.429 44.1197C126.109 42.8287 128.269 42.0062 130.804 42.0734L131.566 42.0935L131.606 43.472Z" fill="#3B434A"/>
</svg>
