<svg width="200" height="82" viewBox="0 0 200 82" fill="none" xmlns="http://www.w3.org/2000/svg">
<rect width="200" height="82" rx="14" fill="#DBE9ED"/>
<path fill-rule="evenodd" clip-rule="evenodd" d="M119.333 32.058C118.262 32.2595 117.475 33.1693 117.475 34.2074C117.475 35.5032 118.307 36.3215 119.714 36.4089C121.161 36.4987 122.186 35.7584 122.329 34.5193C122.417 33.7589 122.309 33.3692 121.872 32.862C121.261 32.1537 120.353 31.8663 119.333 32.058ZM62.3029 40.2409C62.3421 43.7924 62.4278 46.9075 62.4934 47.1636C62.7982 48.3535 63.9787 49.4888 65.2651 49.8289C65.9873 50.0199 68.3309 49.8969 69.2388 49.6202L69.9516 49.4031V47.8187C69.9516 46.9474 69.9363 46.2353 69.9177 46.2364C69.8991 46.2375 69.6393 46.3244 69.3406 46.4293C68.5893 46.6932 67.3762 46.6863 66.9803 46.4157C66.391 46.0131 66.2855 45.4937 66.2855 42.9935V40.6714H68.0507H69.8158V39.0157V37.36H68.0507H66.2855V35.5719V33.7838H64.2586H62.2317L62.3029 40.2409ZM71.4452 40.0997C71.4452 47.3923 71.4585 47.5001 72.5023 48.6326C73.5065 49.7222 73.933 49.877 75.926 49.8758C77.2146 49.875 77.7949 49.8166 78.3361 49.6334L79.049 49.392V47.8262V46.2604L78.4164 46.4461C77.6829 46.6614 76.7704 46.6866 76.2808 46.505C75.6198 46.2598 75.5187 45.8124 75.5187 43.1324V40.6793L77.2499 40.6422L78.9811 40.6051L79.0193 38.9826L79.0574 37.36H77.3043H75.5514L75.4532 35.5719L75.355 33.7838H73.4002H71.4452V40.0997ZM108.679 40.4396C108.716 46.9029 108.726 47.113 109.006 47.7032C109.353 48.4358 110.081 49.1722 110.86 49.5779C111.367 49.8427 111.627 49.8768 113.13 49.8758C114.419 49.875 114.999 49.8166 115.54 49.6334L116.253 49.392V47.8262V46.2604L115.621 46.4461C114.63 46.7369 113.622 46.6902 113.199 46.3338C112.703 45.9163 112.594 45.291 112.59 42.8276L112.587 40.679L114.386 40.6421L116.185 40.6051V39.0157V37.4263L114.386 37.3893L112.587 37.3523V35.5681V33.7838H110.614H108.64L108.679 40.4396ZM151.556 35.7723C150.503 35.9535 149.928 36.6074 149.928 37.6271C149.927 38.8085 150.741 39.6117 151.941 39.6117C153.202 39.6117 154.001 38.8603 154 37.6755C153.999 36.3448 152.955 35.5318 151.556 35.7723ZM153.05 36.5454C154.189 37.6557 153.322 39.3535 151.708 39.176C150.829 39.0793 150.47 38.6434 150.47 37.6735C150.47 37.0419 150.524 36.8896 150.867 36.5551C151.203 36.2274 151.371 36.1679 151.964 36.1679C152.552 36.1679 152.725 36.2281 153.05 36.5454ZM151.24 36.6537C151.19 36.7021 151.149 37.179 151.149 37.7133C151.149 38.661 151.157 38.6846 151.489 38.6846C151.76 38.6846 151.828 38.6183 151.828 38.3534C151.828 38.1713 151.879 38.0223 151.942 38.0223C152.005 38.0223 152.126 38.1713 152.211 38.3534C152.317 38.582 152.474 38.6846 152.715 38.6846H153.065L152.826 38.2885C152.638 37.9787 152.622 37.8575 152.75 37.7322C153.01 37.4782 152.941 36.9963 152.612 36.7715C152.31 36.5649 151.41 36.4877 151.24 36.6537ZM152.338 37.3269C152.373 37.4308 152.263 37.4925 152.043 37.4925C151.815 37.4925 151.692 37.4198 151.692 37.2845C151.692 37.0355 152.252 37.0722 152.338 37.3269ZM51.9078 37.437C50.2357 37.8755 48.5521 39.127 47.7855 40.5012C46.7571 42.3443 46.7363 45.0784 47.7361 46.9983C48.8218 49.0835 51.1934 50.2954 53.4879 49.9378C54.6976 49.7493 55.3898 49.4342 56.1448 48.7286L56.7694 48.1449L56.809 48.9447L56.8487 49.7444L58.7836 49.7811L60.7184 49.8179L60.7164 46.4036C60.7142 42.6881 60.6105 41.9012 59.9568 40.6429C59.2035 39.1928 57.5967 37.9423 55.8395 37.4388C54.9199 37.1754 52.9087 37.1743 51.9078 37.437ZM84.4656 37.4195C80.9184 38.3738 78.8821 42.3502 80.1294 45.8867C80.7988 47.7849 82.5201 49.2542 84.6474 49.7434C86.9547 50.2741 89.532 49.7456 91.2233 48.3949C92.1335 47.6681 92.1151 47.6301 90.5001 46.8926L89.0575 46.2338L88.3365 46.5779C87.342 47.0524 86.0001 47.0686 85.0668 46.6171C84.4019 46.2953 83.8014 45.6016 83.8014 45.1552C83.8014 44.9214 84.0107 44.9099 88.2663 44.9099H92.7313L92.8132 44.6119C92.9662 44.0546 92.8994 42.4517 92.6906 41.6694C92.1271 39.5589 90.4817 38.008 88.1881 37.4252C87.2574 37.1886 85.3346 37.1859 84.4656 37.4195ZM100.486 37.4031C99.7138 37.684 99.0535 38.1281 98.5426 38.7103L98.0716 39.2471L98.0312 38.3366L97.9906 37.4263L96.0557 37.3896L94.1208 37.3527V43.5852V49.8177L96.1236 49.7811L98.1263 49.7444L98.1942 46.102C98.2681 42.1407 98.2829 42.0617 99.0987 41.309C99.6038 40.8426 100.096 40.6714 100.932 40.6714C101.784 40.6714 102.283 40.9489 102.696 41.6528C103.007 42.1813 103.015 42.2874 103.056 46.0026L103.098 49.8107H105.059H107.02L107.018 45.6715C107.017 41.298 106.961 40.7935 106.353 39.6323C105.945 38.8544 105.06 38.0175 104.237 37.6312C103.401 37.2391 101.29 37.1106 100.486 37.4031ZM140.965 37.4769C139.892 37.8147 139.383 38.1018 138.619 38.7981C137.362 39.9445 136.725 41.1407 136.483 42.8059C135.994 46.1634 138.196 49.1689 141.619 49.8183C143.346 50.1459 145.739 49.7803 147.055 48.9876C147.675 48.6149 148.569 47.8346 148.569 47.6673C148.569 47.5983 147.922 47.246 147.13 46.8846L145.692 46.2275L144.95 46.5816C143.157 47.437 140.87 46.763 140.485 45.266L140.393 44.9099H144.874C148.835 44.9099 149.364 44.8855 149.437 44.7003C149.621 44.2325 149.516 42.1408 149.27 41.3785C148.647 39.446 147.015 37.973 144.885 37.42C143.869 37.1561 141.894 37.1848 140.965 37.4769ZM122.907 37.4068C122.907 37.4326 124.056 40.219 125.462 43.599L128.016 49.7444H129.973H131.929L134.41 43.784C135.775 40.5058 136.926 37.7194 136.969 37.5918C137.04 37.3776 136.882 37.36 134.881 37.36H132.716L131.375 41.194C130.638 43.3027 129.999 44.9864 129.955 44.9358C129.911 44.8851 129.521 43.8304 129.089 42.5919C128.656 41.3535 128.06 39.6698 127.763 38.8501L127.223 37.36H125.065C123.878 37.36 122.907 37.3811 122.907 37.4068ZM117.883 43.6374V49.8107H119.919H121.956V43.6516C121.956 39.4395 121.911 37.4925 121.813 37.4925C121.735 37.4925 121.505 37.5761 121.303 37.6783C120.493 38.0868 119.27 38.0424 118.12 37.5632C117.896 37.4697 117.883 37.8086 117.883 43.6374ZM87.7363 40.4396C88.4512 40.796 88.8034 41.2324 88.9145 41.8996L88.9966 42.3933H86.399H83.8014L83.8035 42.0952C83.8047 41.9313 83.9423 41.5633 84.109 41.2773C84.7388 40.198 86.4559 39.8014 87.7363 40.4396ZM144.102 40.2924C144.925 40.5612 145.582 41.3441 145.582 42.0555V42.3933H143.002C140.195 42.3933 140.267 42.4153 140.567 41.6403C140.758 41.1477 141.342 40.5496 141.848 40.3292C142.352 40.1098 143.487 40.0912 144.102 40.2924ZM54.9841 40.8764C55.6849 41.162 56.0852 41.556 56.458 42.327C57.02 43.4897 56.8318 44.7068 55.9449 45.6455C54.5378 47.1346 52.0795 46.731 51.2885 44.881C50.8494 43.8541 51.0923 42.2315 51.7973 41.4836C52.502 40.7357 53.9584 40.4582 54.9841 40.8764Z" fill="#3B434A"/>
</svg>
