<svg width="200" height="82" viewBox="0 0 200 82" fill="none" xmlns="http://www.w3.org/2000/svg">
<rect width="200" height="82" rx="14" fill="#DBE9ED"/>
<path d="M69.3553 59.9473C67.7896 59.9459 66.2292 59.7648 64.7045 59.4077C62.1027 58.8069 59.6456 57.6944 57.4753 56.1348C55.3051 54.5751 53.4648 52.5992 52.0609 50.3214C46.1454 40.7604 49.0625 28.1997 58.5825 22.2464C58.9484 22.0179 59.3898 21.9445 59.8096 22.0423C60.2295 22.1402 60.5933 22.4014 60.8212 22.7684C61.049 23.1354 61.1222 23.5781 61.0246 23.9992C60.927 24.4203 60.6666 24.7853 60.3008 25.0138V25.0138C56.456 27.4124 53.7186 31.2447 52.6909 35.6677C51.6631 40.0907 52.4292 44.742 54.8205 48.5985C57.2119 52.4549 61.0326 55.2006 65.4423 56.2314C69.8519 57.2623 74.4892 56.4939 78.334 54.0953C78.7 53.8749 79.1377 53.8076 79.5526 53.9081C79.9676 54.0085 80.3265 54.2686 80.5519 54.6322C80.7773 54.9958 80.8512 55.4337 80.7575 55.8515C80.6638 56.2692 80.4101 56.6332 80.0512 56.8649C76.844 58.8769 73.1381 59.9453 69.3553 59.9484" fill="#3B434A"/>
<path d="M83.5466 51.2812C83.8834 51.2812 84.2126 51.3814 84.4927 51.5691C84.7727 51.7568 84.991 52.0235 85.1199 52.3356C85.2487 52.6477 85.2825 52.9912 85.2168 53.3225C85.1511 53.6538 84.9889 53.9582 84.7507 54.197C84.5126 54.4359 84.2091 54.5986 83.8788 54.6645C83.5485 54.7304 83.2061 54.6966 82.895 54.5673C82.5838 54.438 82.3178 54.2191 82.1307 53.9382C81.9436 53.6573 81.8438 53.3271 81.8438 52.9893C81.8438 52.5363 82.0232 52.1018 82.3425 51.7815C82.6619 51.4612 83.095 51.2812 83.5466 51.2812" fill="#3B434A"/>
<path d="M63.5023 38.8067C63.4557 37.0153 64.1204 35.2788 65.3502 33.979C66.58 32.6791 68.2742 31.9225 70.0601 31.8755C70.1776 31.8755 70.2962 31.8755 70.4137 31.8755C71.5548 31.8613 72.6802 32.1433 73.6806 32.6942C74.681 33.2451 75.5223 34.0462 76.1228 35.0195L73.8633 36.3333C73.5132 35.7322 73.007 35.2377 72.3987 34.9024C71.7905 34.567 71.1029 34.4035 70.4093 34.4293C69.3175 34.3769 68.2497 34.7617 67.4407 35.499C66.6318 36.2362 66.1479 37.2656 66.0956 38.3607C66.0879 38.5104 66.0879 38.6603 66.0956 38.81C66.0645 39.3512 66.1401 39.8932 66.3179 40.405C66.4957 40.9169 66.7723 41.3886 67.1319 41.7933C67.4915 42.1979 67.927 42.5276 68.4136 42.7634C68.9002 42.9992 69.4284 43.1365 69.9679 43.1676C70.1142 43.1759 70.2608 43.1759 70.4071 43.1676C71.0989 43.1956 71.7854 43.0351 72.3935 42.7031C73.0017 42.3712 73.5088 41.8802 73.8611 41.2823L76.1272 42.5961C75.5299 43.5725 74.6893 44.376 73.6882 44.9275C72.6871 45.479 71.5601 45.7594 70.4181 45.7412C69.5312 45.7635 68.6487 45.6101 67.821 45.29C66.9932 44.9699 66.2365 44.4893 65.5941 43.8756C64.9517 43.262 64.4362 42.5273 64.0771 41.7137C63.718 40.9 63.5223 40.0233 63.5012 39.1338C63.5012 39.0237 63.5012 38.9135 63.5012 38.8034" fill="#3B434A"/>
<path d="M80.2307 31.5684H77.7812V45.4693H80.2307V31.5684Z" fill="#3B434A"/>
<path d="M87.2177 43.5081C87.6212 43.5234 88.0229 43.4455 88.3916 43.2803C88.7604 43.1152 89.0863 42.8672 89.3443 42.5556L91.3206 43.6987C90.8563 44.3591 90.2339 44.8918 89.5106 45.2478C88.7873 45.6039 87.9863 45.7717 87.1814 45.7359C83.992 45.7359 81.9795 43.5467 81.9795 40.7088C81.9573 40.0708 82.0607 39.4347 82.2836 38.8368C82.5066 38.2389 82.8448 37.6908 83.2789 37.224C83.713 36.7572 84.2345 36.3807 84.8137 36.1161C85.3929 35.8514 86.0184 35.7038 86.6544 35.6816C86.7642 35.6816 86.8795 35.6816 86.9915 35.6816C89.801 35.6816 91.7938 37.9094 91.7938 40.7088C91.7926 41.0472 91.761 41.3848 91.6993 41.7175H84.5409C84.8835 42.9751 85.9276 43.5081 87.2177 43.5081V43.5081ZM89.3443 39.8135C89.2505 39.2615 88.9603 38.7623 88.5274 38.4087C88.0945 38.0551 87.5483 37.871 86.9904 37.8907C86.4131 37.8508 85.8411 38.0244 85.3827 38.3786C84.9243 38.7329 84.6112 39.2434 84.5025 39.8135H89.3443Z" fill="#3B434A"/>
<path d="M102.067 35.9473L98.46 45.4697H95.6702L92.0625 35.9473H94.7579L97.0547 42.6131L99.3713 35.9473H102.067Z" fill="#3B434A"/>
<path d="M107.608 43.5081C108.012 43.5234 108.413 43.4455 108.782 43.2803C109.151 43.1152 109.477 42.8672 109.735 42.5556L111.711 43.6987C111.247 44.3592 110.625 44.892 109.901 45.248C109.178 45.604 108.377 45.7718 107.572 45.7359C104.383 45.7359 102.37 43.5467 102.37 40.7088C102.348 40.0707 102.452 39.4344 102.675 38.8364C102.898 38.2384 103.236 37.6904 103.671 37.2236C104.105 36.7568 104.627 36.3803 105.206 36.1158C105.785 35.8512 106.411 35.7037 107.047 35.6816C107.157 35.6816 107.267 35.6816 107.382 35.6816C110.192 35.6816 112.185 37.9094 112.185 40.7088C112.185 41.0473 112.152 41.385 112.089 41.7175H104.93C105.274 42.9751 106.319 43.5081 107.608 43.5081V43.5081ZM109.735 39.8135C109.641 39.2618 109.351 38.763 108.919 38.4094C108.486 38.0559 107.941 37.8716 107.383 37.8907C106.806 37.8508 106.234 38.0244 105.776 38.3787C105.318 38.733 105.005 39.2434 104.896 39.8135H109.735Z" fill="#3B434A"/>
<path d="M130.339 34.6548H126.751V45.47H124.132V34.6548H120.562V32.1406H130.339V34.6548Z" fill="#3B434A"/>
<path d="M139.623 35.9487V45.4689H137.175V44.3468C136.803 44.8041 136.329 45.168 135.792 45.4094C135.254 45.6509 134.668 45.7632 134.08 45.7376C131.555 45.7376 129.469 43.5484 129.469 40.7105C129.469 37.8726 131.555 35.6833 134.08 35.6833C134.668 35.6575 135.254 35.7697 135.792 36.0112C136.329 36.2527 136.803 36.6167 137.175 37.0742V35.9509L139.623 35.9487ZM137.175 40.7094C137.208 40.0314 136.972 39.368 136.517 38.8649C136.063 38.3619 135.428 38.0604 134.752 38.0268C134.679 38.0268 134.608 38.0268 134.532 38.0268C133.858 38.0078 133.204 38.2577 132.713 38.7218C132.222 39.1858 131.935 39.8261 131.914 40.5023C131.914 40.5706 131.914 40.6389 131.914 40.7083C131.897 41.0435 131.946 41.3788 132.058 41.695C132.17 42.0113 132.343 42.3022 132.568 42.5513C132.792 42.8005 133.063 43.0028 133.365 43.1469C133.667 43.2909 133.995 43.3738 134.329 43.3909C134.397 43.3909 134.466 43.3909 134.536 43.3909C135.211 43.4132 135.868 43.1656 136.362 42.7025C136.856 42.2394 137.147 41.5986 137.171 40.9208C137.171 40.8492 137.171 40.7777 137.171 40.7006L137.175 40.7094Z" fill="#3B434A"/>
<path d="M151.998 40.7096C151.998 43.5474 149.912 45.7367 147.366 45.7367C146.78 45.7668 146.196 45.6563 145.661 45.4144C145.127 45.1725 144.657 44.8062 144.292 44.3458V49.2772H141.844V35.9522H144.292V37.0755C144.657 36.6149 145.127 36.2485 145.661 36.0066C146.196 35.7646 146.78 35.6543 147.366 35.6846C149.91 35.6846 151.998 37.8761 151.998 40.714V40.7096ZM149.549 40.714C149.566 40.3782 149.516 40.0424 149.403 39.7258C149.291 39.4092 149.117 39.118 148.892 38.8689C148.667 38.6197 148.395 38.4175 148.092 38.2738C147.789 38.1301 147.461 38.0477 147.126 38.0313C147.054 38.0313 146.983 38.0313 146.906 38.0313C146.233 38.0126 145.58 38.2621 145.089 38.7252C144.599 39.1882 144.311 39.8273 144.289 40.5025C144.289 40.5708 144.289 40.6402 144.289 40.7085C144.272 41.0437 144.321 41.379 144.433 41.6952C144.545 42.0114 144.718 42.3024 144.943 42.5515C145.167 42.8006 145.438 43.003 145.74 43.147C146.042 43.2911 146.37 43.374 146.704 43.3911C146.772 43.3911 146.84 43.3911 146.908 43.3911C147.584 43.4137 148.241 43.1665 148.735 42.7038C149.229 42.2411 149.52 41.6007 149.543 40.9232C149.543 40.8505 149.543 40.7778 149.543 40.7029L149.549 40.714Z" fill="#3B434A"/>
<path d="M116.373 45.4694H113.93V35.6926H117.315C118.352 35.6225 119.374 35.9644 120.162 36.6443C120.95 37.3243 121.439 38.2877 121.525 39.3267L119.11 39.668C118.902 38.2067 117.889 38.1076 117.463 38.1373H116.373V45.4694Z" fill="#3B434A"/>
</svg>
