<svg width="200" height="82" viewBox="0 0 200 82" fill="none" xmlns="http://www.w3.org/2000/svg">
<rect width="200" height="82" rx="14" fill="#DBE9ED"/>
<path d="M42.8088 40.0885L60.5573 28.3335C61.3307 27.8888 62.278 27.8888 63.0514 28.3335L80.7999 40.0885C81.4959 40.4365 81.8053 41.2679 81.4573 41.9832C81.3219 42.2733 81.0899 42.5053 80.7999 42.6406L78.4218 44.2066C72.6023 35.023 60.4606 32.297 51.277 38.0971C48.8216 39.6632 46.7336 41.7319 45.1675 44.2066L42.7701 42.6406C42.0741 42.2733 41.8034 41.4226 42.1514 40.7265C42.3061 40.4559 42.5381 40.2239 42.8088 40.0885ZM61.7753 39.9532C56.6905 39.9725 51.9537 42.5826 49.247 46.8941L53.3264 49.6008C56.1298 44.9413 62.1814 43.4526 66.8215 46.256C68.1942 47.0874 69.3349 48.2281 70.1663 49.6008L74.2457 46.8941C71.5776 42.5633 66.8602 39.9339 61.7753 39.9532ZM61.7753 49.7748C59.9773 49.7941 58.3339 50.7608 57.4445 52.3269L60.19 54.1249C60.6346 54.5116 61.1953 54.705 61.7753 54.705C62.3554 54.705 62.9354 54.4923 63.3607 54.1249L66.1061 52.3269C65.2361 50.7415 63.5734 49.7748 61.7753 49.7748Z" fill="#3B434A"/>
<path d="M92.5937 41.2872L97.0405 47.6674H93.9084L90.5443 42.7179V47.6674H87.9922V35.023H90.5443V40.0692L93.7344 35.023H96.6731L92.5937 41.2872ZM101.429 35.0617H98.8772V47.706H105.393V45.154H101.371L101.429 35.0617ZM112.933 34.5977L118.25 47.6867H115.388L114.886 46.314H110.69L110.188 47.6867H107.307L112.624 34.5977H112.933ZM113.958 43.9553L112.817 40.6878L111.638 43.9553H113.958ZM121.827 42.0799L119.216 35.0617H116.355L121.672 48.1507H121.923L127.24 35.0617H124.359L121.827 42.0799ZM129.193 47.706H131.745V35.0617H129.193V47.706ZM141.837 35.0617L139.266 39.4311L136.694 35.0617H133.62L138.009 42.0025V47.706H140.522V42.0025L144.95 35.0617H141.837ZM158 41.1518C158 44.7673 155.061 47.706 151.446 47.706C147.831 47.706 144.892 44.7673 144.892 41.1518C144.892 37.5364 147.831 34.5977 151.446 34.5977C155.081 34.617 158 37.5364 158 41.1518ZM155.545 41.1518C155.545 38.8898 153.708 37.0724 151.465 37.0724C149.203 37.0724 147.386 38.9091 147.386 41.1518C147.386 43.3946 149.223 45.2313 151.465 45.2313C153.708 45.2313 155.545 43.4139 155.545 41.1712C155.545 41.1712 155.545 41.1712 155.545 41.1518Z" fill="#3B434A"/>
</svg>
