<svg width="200" height="82" viewBox="0 0 200 82" fill="none" xmlns="http://www.w3.org/2000/svg">
<rect width="200" height="82" rx="14" fill="#DBE9ED"/>
<path fill-rule="evenodd" clip-rule="evenodd" d="M56.0387 51.7694C56.0387 51.7694 55.2052 53.6962 53.6158 54.0466C55.9709 55.7788 55.8449 57.7933 55.777 58.6886C55.777 57.7543 55.2731 55.0392 49.7293 54.212C43.0032 53.1707 42.5089 44.8015 42.5089 44.3831C42.5089 44.3831 42.7997 46.4073 44.2922 48.4704C46.1337 45.8234 48.5082 45.3173 48.5082 45.3173C49.865 45.0059 50.873 45.2492 51.0571 45.3173C51.1928 45.3173 51.2994 45.4146 51.2994 45.5509C51.2994 45.6968 51.2025 45.8039 51.0571 45.8039C51.0087 45.8039 50.9602 45.7844 50.9311 45.765C50.9311 45.765 50.0589 45.4341 48.6342 45.7358C46.4826 46.1932 44.9997 47.7016 44.331 48.5287C45.2032 49.716 46.4632 50.913 48.3046 51.7402C48.9831 50.3096 50.4659 47.7113 52.8016 46.4851C52.8016 46.4851 52.821 46.4851 52.8404 46.4851C52.8889 46.4267 52.9567 46.3878 53.0343 46.3878C53.1893 46.3878 53.325 46.5338 53.325 46.7089C53.325 46.8452 53.2281 46.9522 53.1312 47.0009C52.5206 47.5264 50.3205 48.0714 48.3628 51.7694C48.8183 51.964 49.3029 52.1587 49.8166 52.3046C50.6888 52.5479 51.4254 52.8301 52.0457 53.1221C52.695 53.3362 54.7788 53.8422 56.0484 51.7597L56.0387 51.7694ZM41.6948 48.7331C39.8824 44.3344 34.6488 42.2616 34.6488 42.2616C27.8645 39.9162 28.0002 32.4715 28.0002 32.4715C28.0002 28.7541 30.3747 25.3383 32.1677 24.4721C32.1677 24.4721 31.121 25.5037 30.1324 28.0728C29.0663 30.9339 29.454 36.5588 33.5246 38.2132C36.9167 39.527 39.0198 42.3978 39.0198 42.3978C39.0198 42.3978 40.0666 43.6629 40.7644 45.4146C41.8886 48.1589 42.1697 49.8912 41.6948 48.7234V48.7331ZM47.413 33.8729C47.6844 34.7682 47.413 35.5273 47.413 35.5273C49.2932 36.1696 50.6113 37.6682 50.6113 37.6682C50.4175 37.6682 50.3012 37.5904 49.6615 37.3568C49.6615 37.3568 48.5566 36.9676 47.8782 36.987C47.6165 36.987 47.539 37.0162 47.539 37.0162C47.3064 37.2303 46.9187 37.5028 46.3178 37.5028C45.0579 37.5028 44.1468 36.8216 44.1468 36.8216L44.3407 36.7632C44.5151 36.6853 45.1548 36.1793 45.7751 35.6635C46.8412 34.7682 47.4227 33.8729 47.4227 33.8729H47.413ZM60.3225 39.9357C60.4194 40.2277 60.4582 40.8505 60.3225 42.4367C60.2062 43.6045 59.9349 44.2858 58.6749 48.665C58.6749 48.7331 58.6361 48.8012 58.5974 48.8402C58.5974 48.8402 58.5974 48.8402 58.5974 48.8596C58.5295 48.9277 58.3066 49.1516 57.5991 49.4727C57.0854 49.7063 55.2731 50.3486 53.6933 50.2512C51.5029 50.0955 51.0765 50.407 51.0765 50.407C51.0765 50.407 51.2025 48.5579 53.8484 49.2586C54.74 49.4922 56.2035 49.5506 57.0467 49.3754C58.4617 49.1029 58.6168 48.772 58.6361 48.7331C58.8494 47.8865 59.8961 43.624 58.8009 42.9136C58.5392 42.7384 58.3745 42.5827 58.0837 42.719C58.0837 42.719 57.2114 42.8941 56.5912 41.483C56.2423 40.8408 56.8141 40.7045 56.8141 40.7045C56.8141 40.7045 57.3665 40.2569 58.074 40.7045C58.074 40.7045 58.4908 39.7022 59.9155 39.7605C59.9155 39.7605 60.0899 39.7605 60.2062 39.8092C59.3533 37.4736 51.5126 34.4179 51.5126 34.4179C48.5566 33.2695 47.7619 31.3621 45.7363 29.5521C44.2244 28.2091 41.9371 27.4111 40.871 27.1191C43.9045 27.9561 45.9883 28.8903 45.9883 28.8903C48.1689 29.698 50.2139 33.0749 52.1717 34.0481C53.5285 34.7293 59.6926 37.4055 60.3128 39.9357V39.9552L60.3225 39.9357ZM40.2895 26.9245C40.4833 26.9634 40.6771 27.0218 40.871 27.0705C40.5027 26.9732 40.2895 26.9148 40.2895 26.9148V26.9245ZM37.0912 38.2716C32.41 37.1427 32.0902 33.5712 32.0902 33.5712C33.8928 36.0041 34.8426 36.0528 35.8506 36.1793C34.8814 35.3716 34.1255 34.0383 34.9783 32.0434C35.5598 30.6809 36.3933 29.4158 36.2577 28.2675C36.1026 27.0024 35.2885 26.0973 35.618 26.5158C35.8894 26.8369 37.033 28.3648 37.411 29.4547C37.8665 30.7685 37.7405 31.4303 37.2559 33.0165C36.5775 35.3521 38.2251 37.3179 38.2251 37.3179C40.2022 39.128 40.5899 41.9599 40.5899 41.9599C40.2992 41.084 39.5238 38.9431 37.1009 38.2619L37.0912 38.2716ZM38.0603 27.4014C35.9669 24.3164 34.2418 24.005 33.1563 24.0342C33.1563 24.0342 37.8665 23.4017 39.4075 27.5765C40.115 29.5812 38.8841 32.1699 38.8841 32.1699C38.8841 32.1699 39.5626 29.6396 38.041 27.4014H38.0603ZM55.777 58.6789C55.7577 58.8151 55.748 58.9221 55.748 59C55.748 59 55.777 58.8832 55.777 58.6789ZM35.4048 45.2784C36.4709 44.7918 41.4137 48.3633 42.3538 54.65C42.1212 53.3459 41.2877 50.5237 38.448 49.064C34.8039 47.1955 35.0753 45.7066 35.0753 45.7066C35.0753 45.7066 35.114 45.4146 35.4048 45.2784ZM42.4411 55.3409C42.4411 55.3409 42.4411 55.1852 42.4023 54.9127C42.4217 55.0587 42.4411 55.2047 42.4508 55.3409H42.4411ZM143.672 45.473C144.157 45.473 144.487 45.8234 144.487 46.3099C144.487 46.524 144.409 46.7187 144.273 46.8744C144.118 47.069 143.905 47.1663 143.663 47.1663H138.584C138.352 47.1663 138.158 47.069 138.003 46.923C137.838 46.7673 137.741 46.5338 137.741 46.3099V36.6756C137.741 36.4323 137.838 36.2085 138.003 36.0431C138.323 35.7316 138.875 35.7511 139.166 36.0917C139.292 36.2572 139.36 36.4518 139.36 36.6756V45.473H143.672ZM147.162 36.0625C147.472 35.7219 148.014 35.7219 148.325 36.0625C148.47 36.228 148.547 36.4518 148.547 36.6464V46.3002C148.547 46.5143 148.47 46.7284 148.325 46.8841C148.169 47.0593 147.966 47.1566 147.743 47.1566C147.52 47.1566 147.317 47.0593 147.162 46.9036C147.006 46.7381 146.919 46.5143 146.919 46.3002V36.6659C146.919 36.4226 147.016 36.2085 147.152 36.0528L147.162 36.0625ZM159.567 36.4518C160.41 36.9676 161.079 37.678 161.564 38.5733C162.048 39.4491 162.3 40.4418 162.31 41.4928C162.31 42.5633 162.058 43.5364 161.573 44.4123C161.089 45.3173 160.43 46.0277 159.596 46.5532C158.753 47.0787 157.813 47.3318 156.824 47.3318C155.826 47.3318 154.886 47.0787 154.052 46.5532C153.209 46.0277 152.54 45.3173 152.066 44.4123C151.581 43.5364 151.329 42.5438 151.319 41.4928C151.319 40.7142 151.474 39.9357 151.755 39.2253C152.046 38.5149 152.434 37.8921 152.918 37.3763C153.403 36.8508 153.985 36.4323 154.663 36.1112C155.341 35.8192 156.059 35.6635 156.815 35.6635C157.803 35.6635 158.753 35.9165 159.577 36.4421L159.567 36.4518ZM160.275 43.0985C160.468 42.5827 160.585 42.0475 160.585 41.483C160.585 40.724 160.41 40.0428 160.061 39.4005C159.712 38.7582 159.257 38.2716 158.666 37.9018C158.084 37.532 157.474 37.3568 156.805 37.3568C156.126 37.3568 155.506 37.532 154.925 37.8921C154.343 38.2521 153.878 38.7387 153.539 39.381C153.18 40.0233 153.015 40.7045 153.015 41.4733C153.015 42.2324 153.17 42.9136 153.519 43.5462C153.868 44.1982 154.324 44.6848 154.915 45.0546C155.497 45.4146 156.117 45.5995 156.795 45.6093C157.28 45.6093 157.764 45.4925 158.23 45.2784C158.695 45.0546 159.102 44.7626 159.441 44.4025C159.78 44.0425 160.061 43.5948 160.265 43.0888L160.275 43.0985ZM172.777 36.1404C172.922 36.3058 173 36.5102 173 36.7243V46.3002C173 46.5143 172.942 46.7089 172.806 46.8646C172.767 46.9133 172.709 46.962 172.67 47.0009C172.506 47.1177 172.215 47.1566 172.215 47.1566C172.05 47.1566 171.924 47.1177 171.789 47.0398L171.401 46.5824L166.361 39.2837V46.3099C166.361 46.524 166.293 46.7187 166.167 46.8744C166.002 47.069 165.78 47.1663 165.566 47.1663C165.421 47.1663 165.208 47.1177 165.004 46.923C164.83 46.7479 164.743 46.5338 164.743 46.3099V36.734C164.743 36.4615 164.82 36.2474 164.985 36.0528L165.082 35.9944C165.082 35.9944 165.276 35.829 165.537 35.829C165.799 35.829 166.022 35.9263 166.177 36.1501L171.372 43.6824V36.734C171.372 36.5004 171.469 36.2766 171.643 36.1112C171.856 35.9165 172.06 35.8873 172.196 35.8873C172.409 35.8873 172.612 35.9847 172.777 36.1598V36.1404ZM72.7572 45.872C73.0092 45.872 73.1739 46.0472 73.1739 46.3002C73.1739 46.3975 73.1448 46.5143 73.077 46.5922C72.9995 46.6895 72.8832 46.7381 72.7669 46.7381H67.6786C67.5526 46.7381 67.446 46.6895 67.3685 46.6116C67.291 46.5143 67.2425 46.417 67.2425 46.3002V36.6659C67.2425 36.5394 67.291 36.4323 67.3782 36.3447C67.572 36.1501 67.824 36.1696 67.9597 36.3447C68.0372 36.4421 68.076 36.5394 68.076 36.6367V45.8817H72.7862L72.7572 45.872ZM83.205 36.8021C83.9803 37.2887 84.5812 37.9407 85.0464 38.7679C85.4826 39.5951 85.7055 40.5196 85.7249 41.4928C85.7055 42.4659 85.4826 43.3904 85.0464 44.2176C84.5812 45.0448 83.9803 45.7163 83.205 46.1932C82.4296 46.6797 81.5768 46.9328 80.6657 46.9328C79.7547 46.9328 78.9018 46.6895 78.1265 46.2029C77.3511 45.7358 76.7502 45.0643 76.3044 44.2371C75.8586 43.4099 75.626 42.4854 75.626 41.5122C75.626 40.7824 75.7616 40.072 76.0136 39.4005C76.3044 38.7485 76.6436 38.1646 77.0797 37.6877C77.5353 37.2011 78.078 36.8119 78.6983 36.5199C79.3282 36.2474 79.9873 36.1112 80.6754 36.1112C81.5864 36.1112 82.4393 36.3545 83.2147 36.8313L83.205 36.8021ZM84.494 43.2542C84.7072 42.6898 84.8235 42.0864 84.8235 41.483C84.8235 40.6559 84.6297 39.8871 84.242 39.1864C83.8737 38.5052 83.3697 37.9407 82.7204 37.532C82.0904 37.1427 81.3926 36.9481 80.656 36.9481C79.9098 36.9481 79.2023 37.1427 78.582 37.532C77.9423 37.9407 77.419 38.5052 77.0507 39.1864C76.663 39.8871 76.4885 40.6461 76.4885 41.483C76.4885 42.3005 76.6824 43.0693 77.0507 43.7602C77.4383 44.4415 77.9423 45.0059 78.5723 45.4146C79.2023 45.8039 79.9001 46.018 80.6463 46.0277C81.1988 46.0277 81.7318 45.8915 82.2455 45.6579C82.7301 45.4146 83.1953 45.074 83.5636 44.6848C83.9513 44.2955 84.242 43.8089 84.4649 43.2445L84.494 43.2542ZM96.0273 36.2863C96.1727 36.3837 96.2405 36.4615 96.2696 36.5588V36.6756C96.2696 36.7729 96.2696 36.8508 96.2018 36.9092L92.8678 41.6777V46.2905C92.8678 46.4073 92.829 46.5046 92.7515 46.5824C92.6836 46.6797 92.577 46.7284 92.4607 46.7284C92.3638 46.7284 92.2669 46.6797 92.1699 46.5922C92.0924 46.5143 92.0536 46.3975 92.0536 46.3002V41.6679L88.739 36.8994C88.6712 36.8411 88.6421 36.734 88.6421 36.6659C88.6421 36.5102 88.739 36.3739 88.8553 36.3058C88.9038 36.2669 88.991 36.2377 89.0782 36.2377C89.2333 36.2377 89.3302 36.2961 89.3981 36.3837L92.4607 40.7824L95.5233 36.4031C95.659 36.2474 95.7753 36.2085 95.8529 36.2085L95.9304 36.2377L96.0273 36.2766V36.2863ZM102.569 36.4518L106.039 46.1153C106.058 46.164 106.068 46.2126 106.068 46.2613C106.068 46.3099 106.068 46.3586 106.039 46.417C106 46.5338 105.923 46.6116 105.826 46.67L105.68 46.7089C105.583 46.7089 105.419 46.67 105.293 46.4559L104.42 44.023H99.9622L99.0899 46.417C99.0899 46.417 99.0609 46.5143 98.9736 46.6116C98.8961 46.67 98.8089 46.7089 98.712 46.7089L98.5375 46.6603C98.3921 46.563 98.3049 46.4364 98.3049 46.2905C98.3049 46.2321 98.3243 46.164 98.3437 46.0958L101.794 36.4907C101.852 36.3155 101.988 36.1988 102.162 36.1988C102.288 36.1988 102.453 36.2377 102.579 36.4518H102.569ZM100.263 43.1472H104.081L102.182 37.8434L100.272 43.1472H100.263ZM114.704 45.872C114.946 45.872 115.111 46.0472 115.111 46.3002C115.111 46.3975 115.062 46.5143 114.994 46.5922C114.917 46.6895 114.8 46.7381 114.684 46.7381H109.606C109.47 46.7381 109.373 46.6895 109.286 46.6116C109.189 46.5143 109.15 46.417 109.15 46.3002V36.6659C109.15 36.5394 109.199 36.4226 109.276 36.3447C109.441 36.1696 109.703 36.1696 109.858 36.3447C109.925 36.4421 109.954 36.5394 109.954 36.6367V45.8817H114.665L114.704 45.872ZM123.95 36.2377C124.066 36.2377 124.172 36.2863 124.24 36.3739C124.337 36.4518 124.366 36.5686 124.366 36.6659C124.366 36.7924 124.328 36.9092 124.24 36.987C124.163 37.0649 124.066 37.1038 123.95 37.1038H121.042V46.3197C121.042 46.3975 121.013 46.5143 120.906 46.6116C120.809 46.7284 120.693 46.7576 120.616 46.7576C120.499 46.7576 120.393 46.7089 120.325 46.6213C120.247 46.524 120.199 46.4267 120.199 46.3294V37.1038H117.291C117.165 37.1038 117.068 37.0551 117 36.9773C116.904 36.8994 116.855 36.7827 116.855 36.6853C116.855 36.5588 116.904 36.4518 116.981 36.3642C117.059 36.2669 117.175 36.228 117.272 36.228H123.959L123.95 36.2377ZM134.581 36.3155C134.707 36.4129 134.775 36.4907 134.795 36.588L134.814 36.7048C134.814 36.8021 134.785 36.8702 134.737 36.9384L131.403 41.7069V46.2905C131.403 46.3878 131.364 46.5046 131.286 46.5824C131.209 46.6797 131.092 46.7284 130.996 46.7284C130.899 46.7284 130.782 46.6797 130.705 46.5922C130.627 46.5143 130.579 46.3975 130.579 46.3002V41.6679L127.264 36.8994C127.206 36.8411 127.187 36.734 127.187 36.6659C127.187 36.5102 127.254 36.3739 127.38 36.3058C127.439 36.2669 127.516 36.2377 127.613 36.2377C127.778 36.2377 127.875 36.2961 127.943 36.3837L131.005 40.7824L134.058 36.4031C134.204 36.2474 134.31 36.2085 134.388 36.2085L134.465 36.2377L134.562 36.2766L134.581 36.3155Z" fill="#3B434A"/>
</svg>
