<svg width="55" height="42" viewBox="0 0 55 42" fill="none" xmlns="http://www.w3.org/2000/svg">
<path d="M6.95613 20.9743L6.4523 22.2792L7.66915 21.5893C9.28823 20.6715 11.1161 20.186 12.9769 20.1795H13.029H13.0411L13.0533 20.1789C14.495 20.1088 15.936 20.3324 17.2888 20.8361C18.6416 21.3399 19.8781 22.1133 20.9233 23.1096C21.9685 24.1058 22.8006 25.3041 23.3692 26.6317C23.9378 27.9594 24.231 29.3888 24.231 30.8332C24.231 32.2777 23.9378 33.7071 23.3692 35.0348C22.8006 36.3624 21.9685 37.5607 20.9233 38.5569C19.8781 39.5532 18.6416 40.3266 17.2888 40.8304C15.936 41.3341 14.495 41.5577 13.0533 41.4876L13.0433 41.4871L13.0333 41.487C11.3925 41.4728 9.7754 41.094 8.29869 40.3782L8.2887 40.3734L8.27852 40.369C5.98298 39.3795 4.02499 37.7426 2.64367 35.6581C1.26266 33.5741 0.517797 31.1328 0.5 28.6324C0.500747 21.4501 5.10565 9.73689 15.529 1.26276L15.529 1.26277L15.5316 1.26067C15.7747 1.06033 16.0549 0.909875 16.3561 0.81789C16.6573 0.725905 16.9736 0.694185 17.2871 0.724536C17.6005 0.754888 17.905 0.846719 18.183 0.994795C18.461 1.14287 18.7071 1.3443 18.9073 1.58759C19.1076 1.83089 19.258 2.11128 19.3499 2.41276C19.4419 2.71425 19.4736 3.03091 19.4433 3.34467C19.4129 3.65842 19.3211 3.96311 19.1731 4.24135C19.0253 4.51916 18.8244 4.76515 18.5817 4.96533C13.3797 9.19795 9.37236 14.7163 6.95613 20.9743Z" fill="url(#paint0_linear_1180_1593)" stroke="black"/>
<path d="M42.426 20.0485L42.9249 20.0474V19.9828C44.2104 19.9777 45.4876 20.2039 46.6947 20.6518C48.0507 21.155 49.29 21.9275 50.3374 22.9225C51.3849 23.9174 52.2187 25.114 52.7884 26.4397C53.3581 27.7654 53.6519 29.1926 53.6519 30.6348C53.6519 32.077 53.3581 33.5042 52.7884 34.8298C52.2187 36.1555 51.3849 37.3521 50.3374 38.3471C49.29 39.342 48.0507 40.1145 46.6947 40.6177C45.3387 41.1209 43.8943 41.3443 42.4491 41.2742L42.4359 41.2736L42.4228 41.2737C40.7356 41.2809 39.0694 40.9021 37.5522 40.1665L37.5453 40.1631L37.5383 40.16C35.2786 39.1488 33.3589 37.5104 32.0082 35.4408C30.6577 33.3715 29.9332 30.9585 29.9209 28.49C29.9214 21.3183 34.5357 9.62059 44.9817 1.15742L44.9942 1.14736L45.0059 1.13652C45.2464 0.914749 45.53 0.744332 45.8392 0.635833C46.1485 0.527334 46.4767 0.483071 46.8038 0.505795C47.1309 0.52852 47.4498 0.617745 47.7409 0.767928C48.032 0.91811 48.2891 1.12605 48.4964 1.37888C48.7037 1.6317 48.8569 1.92406 48.9465 2.23796C49.0362 2.55185 49.0605 2.88069 49.0179 3.20426C48.9754 3.52783 48.8668 3.83936 48.699 4.11967C48.5311 4.39999 48.3074 4.64319 48.0416 4.83424L48.0293 4.84307L48.0176 4.85262C42.8194 9.08782 38.8137 14.5971 36.3931 20.8407L35.8866 22.1472L37.1058 21.4565C38.7277 20.5376 40.5604 20.0525 42.426 20.0485Z" fill="url(#paint1_linear_1180_1593)" stroke="black"/>
<defs>
<linearGradient id="paint0_linear_1180_1593" x1="12.3655" y1="0.213379" x2="12.3655" y2="42.0002" gradientUnits="userSpaceOnUse">
<stop stop-color="#7AB7FF"/>
<stop offset="1" stop-color="#5C6AC4"/>
</linearGradient>
<linearGradient id="paint1_linear_1180_1593" x1="41.7864" y1="0" x2="41.7864" y2="41.7868" gradientUnits="userSpaceOnUse">
<stop stop-color="#7AB7FF"/>
<stop offset="1" stop-color="#5C6AC4"/>
</linearGradient>
</defs>
</svg>
