<svg width="231" height="82" viewBox="0 0 231 82" fill="none" xmlns="http://www.w3.org/2000/svg">
<rect width="231" height="82" rx="14" fill="#DBE9ED"/>
<g clip-path="url(#clip0_1409_2020)">
<path fill-rule="evenodd" clip-rule="evenodd" d="M79.3566 40.9903C79.3566 47.606 73.9041 52.969 67.1783 52.969C60.4524 52.969 55 47.606 55 40.9903C55 34.3747 60.4524 29.0117 67.1783 29.0117C73.9041 29.0117 79.3566 34.3747 79.3566 40.9903ZM62.3048 45.7295H68.3406C68.4333 45.7295 68.4796 45.6159 68.4333 45.5363L63.5559 39.593C63.4864 39.5135 63.3706 39.5475 63.3474 39.6384L62.1773 45.5818C62.1657 45.6614 62.2237 45.7295 62.3048 45.7295ZM62.1913 36.7582H68.2272C68.3082 36.7582 68.3662 36.8264 68.3546 36.9059L67.1845 42.8493C67.1613 42.9403 67.0455 42.9743 66.9759 42.8948L62.0986 36.94C62.0407 36.8718 62.087 36.7582 62.1913 36.7582ZM68.8408 36.8491C68.8524 36.8037 68.8987 36.7582 68.9566 36.7582H73.3011C73.3706 36.7582 73.4401 36.8264 73.4285 36.8946L72.6175 40.7583C72.606 40.8151 72.5596 40.8492 72.5017 40.8492H72.3743C70.231 40.8492 68.528 38.9059 68.8408 36.8491Z" fill="#3B434A"/>
<path d="M88.3464 35.9241H92.6844C92.8877 35.9241 93.0233 36.0353 92.9782 36.2575L92.7296 37.6353C93.5882 36.4131 94.8309 35.6797 96.0961 35.6797C96.7287 35.6797 97.4065 35.9241 97.768 36.2575C97.9714 36.4575 97.9714 36.5686 97.8358 36.7686L96.5706 38.5243C96.4124 38.7465 96.2994 38.7243 96.0509 38.6131C95.8024 38.502 95.4861 38.4131 95.1472 38.4131C93.6334 38.4131 92.3681 39.391 91.7807 42.3467L90.8995 46.8136C90.8317 47.1025 90.6058 47.1692 90.4928 47.1692H88.1882C88.0075 47.1692 87.8494 47.0136 87.8945 46.8136L89.6116 38.2354L88.1657 36.2353C88.0527 36.0797 88.1431 35.9241 88.3464 35.9241Z" fill="#3B434A"/>
<path d="M96.6583 41.4578C97.2458 37.9687 99.8441 35.6797 103.233 35.6797C106.667 35.6797 108.294 38.3687 107.797 41.3022C107.684 42.0578 107.413 42.6579 106.78 42.6579H99.4599C99.5278 44.3023 100.68 45.0802 102.216 45.0802C103.233 45.0802 104.182 44.7024 104.905 44.2357C105.086 44.1023 105.289 44.0357 105.425 44.2357L106.261 45.5247C106.396 45.7247 106.328 45.858 106.125 46.0358C105.041 47.0136 103.278 47.4581 101.674 47.4581C98.0591 47.4581 96.0935 44.8357 96.6583 41.4578ZM105.176 40.7022C105.289 38.9465 104.069 38.2131 102.894 38.2131C101.358 38.2131 100.16 39.2355 99.7085 40.7022H105.176Z" fill="#3B434A"/>
<path d="M118.733 46.903L121.354 33.7467L120.066 32.0577C119.999 31.9466 120.089 31.791 120.247 31.791H124.269C124.495 31.791 124.608 31.9244 124.563 32.1244L123.388 37.9246C124.291 36.5913 125.647 35.6801 127.229 35.6801C129.759 35.6801 131.205 37.8135 130.663 40.4359L129.352 46.814C129.307 47.0585 129.104 47.1696 128.946 47.1696H126.573C126.347 47.1696 126.235 47.0362 126.28 46.814L127.455 41.0582C127.771 39.5026 127.342 38.5469 126.37 38.5469C124.563 38.5469 123.139 40.547 122.529 43.3694L121.761 46.903C121.738 47.0362 121.625 47.1696 121.467 47.1696H118.959C118.824 47.1696 118.711 47.0362 118.733 46.903Z" fill="#3B434A"/>
<path d="M131.476 41.5911C132.063 37.8798 134.729 35.6797 137.847 35.6797C139.497 35.6797 140.784 36.4131 141.281 37.6353L141.553 36.2797C141.598 36.0353 141.779 35.9241 141.982 35.9241H144.174C144.422 35.9241 144.513 36.0797 144.467 36.2797L142.366 46.8359C142.321 47.0359 142.186 47.1692 141.937 47.1692H139.723C139.52 47.1692 139.407 47.0581 139.451 46.8359L139.655 45.7469C138.615 46.9025 137.328 47.4803 135.927 47.4803C132.741 47.4803 130.956 44.8802 131.476 41.5911ZM136.831 44.7913C138.661 44.7913 140.017 43.2801 140.287 41.5022C140.558 39.7243 139.587 38.3909 137.892 38.3909C136.085 38.3909 134.775 39.8355 134.481 41.5244C134.187 43.2356 135.068 44.7913 136.831 44.7913Z" fill="#3B434A"/>
<path d="M143.789 46.8136L145.913 36.213C145.958 36.0353 146.048 35.9241 146.184 35.9241H148.579C148.783 35.9241 148.918 36.0353 148.873 36.2575L148.624 37.6353C149.483 36.4131 150.726 35.6797 151.991 35.6797C152.623 35.6797 153.301 35.9241 153.663 36.2575C153.866 36.4575 153.866 36.5686 153.73 36.7686L152.466 38.5243C152.307 38.7465 152.194 38.7243 151.946 38.6131C151.697 38.502 151.381 38.4131 151.041 38.4131C149.528 38.4131 148.263 39.391 147.675 42.3467L146.794 46.8136C146.727 47.1025 146.501 47.1692 146.388 47.1692H144.083C143.902 47.1692 143.744 47.0136 143.789 46.8136Z" fill="#3B434A"/>
<path d="M151.675 50.3916C151.539 50.2805 151.539 50.1027 151.629 49.9471L152.692 48.3026C152.805 48.1248 152.985 48.0803 153.121 48.1915C154.16 48.8359 155.177 49.2359 156.42 49.2359C158.588 49.2359 160.396 48.3692 161.029 45.5024C159.831 46.6136 158.724 47.147 157.052 47.147C153.776 47.147 152.059 44.4357 152.601 41.4133C153.211 37.9909 155.81 35.6797 159.086 35.6797C160.893 35.6797 162.136 36.6797 162.52 37.502L162.791 36.2797C162.836 36.0353 162.994 35.9241 163.175 35.9241H165.389C165.615 35.9241 165.728 36.0575 165.683 36.2797L163.83 45.5691C163.017 49.6138 160.17 51.725 156.307 51.725C154.68 51.725 152.849 51.325 151.675 50.3916ZM157.911 44.5468C159.741 44.5468 161.096 43.1023 161.367 41.3911C161.639 39.6799 160.667 38.3909 158.973 38.3909C157.165 38.3909 155.855 39.791 155.561 41.4133C155.267 43.0579 156.148 44.5468 157.911 44.5468Z" fill="#3B434A"/>
<path d="M165.775 41.4578C166.363 37.9687 168.961 35.6797 172.35 35.6797C175.785 35.6797 177.412 38.3687 176.915 41.3022C176.802 42.0578 176.53 42.6579 175.898 42.6579H168.577C168.645 44.3023 169.797 45.0802 171.334 45.0802C172.35 45.0802 173.3 44.7024 174.023 44.2357C174.203 44.1023 174.406 44.0357 174.542 44.2357L175.378 45.5247C175.513 45.7247 175.446 45.858 175.243 46.0358C174.158 47.0136 172.396 47.4581 170.791 47.4581C167.177 47.4581 165.211 44.8357 165.775 41.4578ZM174.293 40.7022C174.406 38.9465 173.186 38.2131 172.011 38.2131C170.476 38.2131 169.278 39.2355 168.826 40.7022H174.293Z" fill="#3B434A"/>
<path d="M113.68 47.4803C115.194 47.4803 116.685 47.0581 118.041 45.7913C118.244 45.6135 118.267 45.3691 118.131 45.2358L116.889 43.8801C116.776 43.7468 116.595 43.7468 116.437 43.8579C115.917 44.2357 115.081 44.6802 114.087 44.6802C112.302 44.6802 111.308 43.3023 111.534 41.5689C111.76 39.8577 113.138 38.4799 114.878 38.4799C115.827 38.4799 116.437 38.8131 117.115 39.4799C117.295 39.6577 117.408 39.6577 117.612 39.5021L119.216 38.1465C119.374 38.0131 119.419 37.8575 119.306 37.6798C118.335 36.3242 116.821 35.6797 115.149 35.6797C111.782 35.6797 109.049 38.1465 108.597 41.4133C108.1 44.9691 110.495 47.4803 113.68 47.4803Z" fill="#3B434A"/>
</g>
<defs>
<clipPath id="clip0_1409_2020">
<rect width="122" height="24" fill="white" transform="translate(55 29)"/>
</clipPath>
</defs>
</svg>
