<svg width="200" height="82" viewBox="0 0 200 82" fill="none" xmlns="http://www.w3.org/2000/svg">
<rect width="200" height="82" rx="14" fill="#DBE9ED"/>
<path d="M42.375 52.8603H54.3103C55.9469 52.8603 57.273 51.5375 57.273 49.9073V46.6992H42.375V52.8603Z" fill="#3B434A"/>
<path d="M42.375 44.5088H54.3103C55.9469 44.5088 57.273 43.1859 57.273 41.5557V38.3477H42.375V44.5088Z" fill="#3B434A"/>
<path d="M42.375 36.1611H54.3103C55.9469 36.1611 57.273 34.8382 57.273 33.2081V30H42.375V36.1611Z" fill="#3B434A"/>
<path d="M34 36.1611H37.1818C38.8138 36.1611 40.14 34.8382 40.14 33.2081V30H34V36.1611Z" fill="#3B434A"/>
<path d="M34 44.5088H37.1818C38.8138 44.5088 40.14 43.1859 40.14 41.5557V38.3477H34V44.5088Z" fill="#3B434A"/>
<path d="M34 52.8603H37.1818C38.8138 52.8603 40.14 51.5375 40.14 49.9073V46.6992H34V52.8603Z" fill="#3B434A"/>
<path d="M67.3438 45.1118L68.5739 44.6678C69.1902 46.4437 70.7605 47.5024 72.9449 47.5024C75.0905 47.5024 76.7431 46.3822 76.7431 44.5403C76.7431 42.7621 75.7249 42.0654 74.3258 41.6191L71.3564 40.7494C69.2108 40.1164 68.1084 38.9529 68.1084 36.963C68.1084 34.5905 70.1466 33.0469 72.8172 33.0469C75.0905 33.0469 76.9347 33.8734 77.7428 35.7996L76.5947 36.264C75.8939 34.9526 74.6432 34.1921 72.84 34.1921C71.1623 34.1921 69.4459 35.0368 69.4459 36.8378C69.4459 38.0855 70.0599 39.0167 72.0525 39.6087L75.0244 40.4762C76.8069 40.9839 78.0577 42.0859 78.0577 44.3923C78.0577 46.9105 76.0445 48.6682 72.8604 48.6682C70.1032 48.6682 68.0011 47.3977 67.3438 45.1118Z" fill="#3B434A"/>
<path d="M79.2031 44.4347V42.1487C79.2031 39.2481 81.0908 37.6406 83.6176 37.6406C85.9732 37.6406 87.6897 39.0796 87.6897 41.789V43.3327H80.4974V44.5827C80.4974 46.4428 81.6867 47.6291 83.7227 47.6291C85.0808 47.6291 85.9732 46.9733 86.5438 46.2766L87.4774 46.8686C86.5028 48.2643 85.0395 48.6878 83.6358 48.6878C81.0498 48.6878 79.2031 47.3331 79.2031 44.4347ZM86.4593 42.4447V41.7252C86.4593 40.0746 85.5463 38.6766 83.5127 38.6766C81.5793 38.6766 80.4974 40.1793 80.4974 41.8732V42.4447H86.4593Z" fill="#3B434A"/>
<path d="M88.8984 45.6404C88.8984 43.2679 91.0828 42.487 92.8244 42.487H95.9196V40.8568C95.9196 39.2061 94.8193 38.6346 93.2262 38.6346C91.9113 38.6346 90.51 39.1013 90.51 40.4766V40.8158H89.3642V40.4993C89.3642 38.4024 91.3179 37.6191 93.2901 37.6191C95.3489 37.6191 97.1725 38.3614 97.1725 40.6473V45.7679C97.1725 46.3826 97.257 47.9468 97.3209 48.4136H96.0907C96.0497 48.0538 96.0063 47.0589 96.0063 46.7424H95.9628C95.0932 48.3703 93.6713 48.6458 92.3771 48.6458C90.4666 48.6458 88.8984 47.5871 88.8984 45.6404ZM95.9196 44.6022V43.4182H93.0778C91.6353 43.4182 90.1492 43.7779 90.1492 45.5789C90.1492 46.9951 91.3796 47.6736 92.717 47.6736C94.84 47.6736 95.9196 46.4236 95.9196 44.6022Z" fill="#3B434A"/>
<path d="M99.2734 37.8746H100.483V40.1172H100.526C101.46 38.2343 103.03 37.7266 104.453 37.7266C104.706 37.7266 104.982 37.747 105.194 37.7903V38.9538C104.834 38.89 104.471 38.89 104.217 38.89C102.179 38.89 100.588 40.1582 100.526 42.5512V48.414H99.2734V37.8746Z" fill="#3B434A"/>
<path d="M105.727 44.4552V42.0007C105.727 39.2708 107.402 37.6406 109.949 37.6406C112.433 37.6406 113.978 39.0386 113.978 41.1333V41.4498H112.771V41.0263C112.771 39.947 111.962 38.6766 109.968 38.6766C107.995 38.6766 107.019 40.0746 107.019 41.9165V44.4779C107.019 46.3176 107.888 47.6313 109.99 47.6313C111.985 47.6313 112.771 46.3814 112.771 45.2794V44.9219H113.978V45.1974C113.978 47.2921 112.474 48.6878 109.968 48.6878C107.338 48.6878 105.727 47.1646 105.727 44.4552Z" fill="#3B434A"/>
<path d="M115.547 33.3027H116.777V39.885H116.841C117.565 38.3801 118.987 37.6196 120.429 37.6196C122.634 37.6196 123.716 39.1018 123.716 40.9415V48.414H122.465V41.513C122.465 39.5458 121.491 38.7193 120.046 38.7193C118.37 38.7193 116.777 40.033 116.777 42.1072V48.414H115.547V33.3027Z" fill="#3B434A"/>
<path d="M125.391 45.6404C125.391 43.2679 127.577 42.487 129.317 42.487H132.414V40.8568C132.414 39.2061 131.312 38.6346 129.718 38.6346C128.404 38.6346 127.002 39.1013 127.002 40.4766V40.8158H125.856V40.4993C125.856 38.4024 127.81 37.6191 129.782 37.6191C131.841 37.6191 133.665 38.3614 133.665 40.6473V45.7679C133.665 46.3826 133.749 47.9468 133.813 48.4136H132.583C132.542 48.0538 132.498 47.0589 132.498 46.7424H132.457C131.588 48.3703 130.166 48.6458 128.869 48.6458C126.961 48.6458 125.391 47.5871 125.391 45.6404ZM132.414 44.6022V43.4182H129.57C128.127 43.4182 126.644 43.7779 126.644 45.5789C126.644 46.9951 127.874 47.6736 129.211 47.6736C131.332 47.6736 132.414 46.4236 132.414 44.6022Z" fill="#3B434A"/>
<path d="M135.812 37.8742H137.002V39.8846H137.045C137.784 38.3819 139.206 37.6191 140.695 37.6191C142.897 37.6191 143.981 39.1013 143.981 40.9433V48.4136H142.731V41.5148C142.731 39.5453 141.756 38.7211 140.311 38.7211C138.636 38.7211 137.045 40.0326 137.045 42.1068V48.4136H135.812V37.8742Z" fill="#3B434A"/>
<path d="M146.227 33.1758H147.457V35.3365H146.227V33.1758ZM146.227 37.8752H147.457V48.4146H146.227V37.8752Z" fill="#3B434A"/>
<path d="M149.031 47.1226L149.878 46.4031C150.771 47.2501 151.766 47.6736 153.167 47.6736C154.525 47.6736 155.904 46.9336 155.904 45.5789C155.904 44.2857 155.098 43.885 153.635 43.6095L152.466 43.3567C150.599 42.997 149.474 42.1478 149.474 40.6678C149.474 38.9534 150.812 37.6191 153.147 37.6191C154.63 37.6191 155.861 37.9584 156.669 38.7849L155.84 39.4839C155.162 38.9329 154.292 38.5936 153.039 38.5936C151.64 38.5936 150.704 39.3769 150.704 40.4561C150.704 41.5581 151.553 41.9793 153.103 42.3185L154.674 42.6578C156.157 42.997 157.198 43.778 157.198 45.3239C157.198 47.5461 155.183 48.6686 153.188 48.6686C151.512 48.6686 150.006 48.2451 149.031 47.1226Z" fill="#3B434A"/>
<path d="M158.359 44.4347V42.1487C158.359 39.2481 160.249 37.6406 162.774 37.6406C165.129 37.6406 166.848 39.0796 166.848 41.789V43.3327H159.654V44.5827C159.654 46.4428 160.843 47.6291 162.879 47.6291C164.237 47.6291 165.129 46.9733 165.702 46.2766L166.634 46.8686C165.659 48.2643 164.196 48.6878 162.794 48.6878C160.208 48.6878 158.359 47.3331 158.359 44.4347ZM165.618 42.4447V41.7252C165.618 40.0746 164.705 38.6766 162.669 38.6766C160.736 38.6766 159.654 40.1793 159.654 41.8732V42.4447H165.618Z" fill="#3B434A"/>
</svg>
