<svg xmlns="http://www.w3.org/2000/svg" viewBox="0 0 341.95 98.67"><defs><style>.cls-1{fill:#94be46;}.cls-2{fill:#acadad;}.cls-3{fill:#5f8d3e;}.cls-4{fill:#fff;}</style></defs><g id="Layer_2" data-name="Layer 2"><g id="Layer_1-2" data-name="Layer 1"><path class="cls-1" d="M56.58,98.63c-1.48-.15-2.92-.5-4.37-.77-5.62-1-11.23-2.1-16.85-3.16L18.77,91.57Q9.56,89.83.35,88.12a2,2,0,0,0-.35,0v-.18a.65.65,0,0,0,.34-.58Q.79,83.7,1.25,80c.33-2.56.67-5.11,1-7.67s.63-4.93,1-7.4c.39-3,.77-6,1.16-9.08.33-2.58.65-5.17,1-7.75S6,43,6.35,40.47s.63-5,1-7.49c.16-1.26.35-2.52.5-3.78a2.21,2.21,0,0,1,1.67-2c1.44-.46,2.87-.94,4.31-1.39,1.72-.54,3.44-1.1,5.18-1.6a1.39,1.39,0,0,0,1.12-1.15,48.47,48.47,0,0,1,4.48-11.67,25.85,25.85,0,0,1,6.38-7.91A15.42,15.42,0,0,1,38.27.11a7.25,7.25,0,0,1,6.9,2.39c.19.21.34.44.71.43,3.43-.08,5.91,1.61,7.86,4.27a19.73,19.73,0,0,1,2.33,4.49c.35.92.34.92,1.26.66s1.53-.45,2.3-.66a1.84,1.84,0,0,1,1.61.24c-.38,4-.48,8-.69,12-.24,4.61-.45,9.23-.67,13.84q-.27,5.51-.55,11c-.23,4.62-.45,9.23-.7,13.84-.19,3.67-.32,7.34-.53,11-.31,5.11-.5,10.23-.81,15.35-.17,2.86-.26,5.74-.42,8.6C56.85,97.93,56.91,98.34,56.58,98.63Z"/><path class="cls-2" d="M341.79,36.32a.18.18,0,0,1,.16,0v.53l-.07,0h-.08A.36.36,0,0,1,341.79,36.32Z"/><path class="cls-3" d="M56.58,98.63c0-2,.14-3.95.26-5.92a42.59,42.59,0,0,1,.29-4.92.28.28,0,0,0,0-.09c-.1-1.6.22-3.18.2-4.78a36.11,36.11,0,0,1,.3-4.76,11.45,11.45,0,0,0,0-1.31c0-1.54.17-3.07.25-4.6a44.1,44.1,0,0,1,.3-5.27,3.32,3.32,0,0,0,0-.63c-.09-1.86.15-3.72.23-5.57,0-1.18,0-2.36.16-3.52.22-1.67,0-3.36.31-5a.47.47,0,0,0,0-.17c-.09-1.69.21-3.36.21-5a40.51,40.51,0,0,1,.29-4.67,9.55,9.55,0,0,0,0-1.31c0-1.63.16-3.25.24-4.86A37.78,37.78,0,0,1,60,31.42a3.37,3.37,0,0,0,0-.71c-.1-1.9.18-3.78.22-5.67a34.93,34.93,0,0,1,.18-3.69c.22-1.64,0-3.3.31-4.93a2.81,2.81,0,0,0,0-.71c-.07-1.13.24-2.23.19-3.36a.37.37,0,0,1,.36-.42c.38.09.58.4.83.65,1.58,1.56,3.18,3.11,4.73,4.7a2.27,2.27,0,0,0,1.56.69c2,.11,4,.26,6,.4.26,0,.53,0,.8.05.72.1.9.25,1,1,.36,2.32.7,4.63,1.05,6.94.63,4.25,1.27,8.5,1.89,12.75.51,3.42,1,6.85,1.51,10.28s1,6.68,1.49,10,1,6.86,1.51,10.28q.95,6.28,1.88,12.57.69,4.69,1.37,9.41c0,.14,0,.28,0,.48-1.69.37-3.36.75-5,1.11L57.68,98.47C57.32,98.54,57,98.76,56.58,98.63Z"/><path d="M228.06,42c.41-.05.51-.36.69-.57a16.81,16.81,0,0,1,8.58-5.74,12,12,0,0,1,9.45,1.11,11.23,11.23,0,0,1,4.92,6.62,22.8,22.8,0,0,1,.82,8.88,32.55,32.55,0,0,1-3.31,12.18,25.62,25.62,0,0,1-8,9.69,19.06,19.06,0,0,1-13.25,3.56,11.08,11.08,0,0,1-4.81-1.45,1,1,0,0,0-.3-.1,1.56,1.56,0,0,0-.26.81l-2.91,15.45c-.19,1-.19,1-1.19,1h-9.7a2,2,0,0,1-1-.09q1.08-5.67,2.17-11.34,1.65-8.55,3.3-17.1,1.38-7.16,2.75-14.31c.56-2.94.95-5.9,1.36-8.87.24-1.79.49-3.58.7-5.37,0-.42.22-.54.62-.54,3.11,0,6.23,0,9.34,0,.45,0,.55.15.5.58-.19,1.68-.35,3.36-.51,5A.71.71,0,0,0,228.06,42Z"/><path d="M150.94,77.26l1.88-9.52c1-4.89,1.92-9.77,2.86-14.65a23,23,0,0,0,.43-3.8,8.8,8.8,0,0,0-.13-1.77c-.37-2-1.86-2.93-3.91-2.74a5,5,0,0,0-2.29.9,11.23,11.23,0,0,0-3.29,3.57,24.54,24.54,0,0,0-3.19,8.42q-1.67,8.42-3.3,16.83c-.15.79-.32,1.57-.45,2.36-.05.29-.18.42-.47.4s-.29,0-.44,0H127.79c.21-1.17.41-2.26.62-3.36q1.56-8.2,3.14-16.4c1.1-5.73,2.22-11.46,3.32-17.19q1.73-9,3.43-18l.66-3.4c.18-.93.19-.93,1.18-.93h10.68c-1.52,7.84-3,15.61-4.54,23.41.5,0,.62-.32.82-.55a16.9,16.9,0,0,1,5.53-4.25,14.41,14.41,0,0,1,8.67-1.14,7.88,7.88,0,0,1,6.56,6.63,20.84,20.84,0,0,1,.09,6.64c-.42,3.59-1.29,7.11-1.94,10.66-1,5.57-2.1,11.12-3.15,16.68-.22,1.17-.21,1.18-1.41,1.18H150.94Z"/><path d="M210.64,51.91a29.2,29.2,0,0,1-1.48,9.25A25.18,25.18,0,0,1,200.23,74a20.26,20.26,0,0,1-16.9,3.72c-6.07-1.3-9.7-5.27-11.18-11.23a22.08,22.08,0,0,1-.35-7.69A28.39,28.39,0,0,1,177.64,44a21.9,21.9,0,0,1,12.21-8.09,19.69,19.69,0,0,1,9.94-.06,13.72,13.72,0,0,1,9.91,9.42A19.15,19.15,0,0,1,210.64,51.91Z"/><path d="M341.79,36.32v.55c-.8,2-1.76,3.82-2.66,5.71q-5.92,12.53-11.87,25a92.93,92.93,0,0,1-9.55,16.09A39.17,39.17,0,0,1,311,90.9a27.67,27.67,0,0,1-9.36,4.77c-.28.09-.49.15-.62-.23q-1.54-4.66-3.11-9.38c.85-.35,1.68-.64,2.48-1A27.25,27.25,0,0,0,308,80a18.49,18.49,0,0,0,3.13-4.41,2,2,0,0,0,.16-1.38Q309.4,64,307.47,53.92q-1.61-8.47-3.2-16.94a1.16,1.16,0,0,1,0-.69c.21-.16.46-.09.68-.09h10.77c.78,0,.81,0,.89.8.34,3,.66,6.07,1,9.1.25,2.45.51,4.9.75,7.34s.45,4.78.68,7.17c.11,1.12.24,2.24.36,3.36,0,.2,0,.47.23.52s.29-.24.36-.43c.79-2.13,1.61-4.26,2.38-6.4,2.12-5.91,4.48-11.72,6.7-17.59.43-1.13.88-2.26,1.3-3.39.12-.31.25-.49.63-.49l10.67.07A.58.58,0,0,1,341.79,36.32Z"/><path d="M274.84,77.17,281,44.67h-5.39a1.2,1.2,0,0,1,0-.91c.44-2.41.9-4.83,1.36-7.24.12-.65.12-.65.78-.66,1.43,0,2.85,0,4.27,0,.49,0,.67-.15.74-.62a32.93,32.93,0,0,1,1.5-6,18.44,18.44,0,0,1,7.11-9.52,16.48,16.48,0,0,1,7-2.54,22.18,22.18,0,0,1,7.79.29c1.51.33,1.51.35,1.1,1.79-.68,2.42-1.36,4.85-2.05,7.27,0,.14-.1.27-.18.47-.9-.16-1.76-.43-2.67-.52a6,6,0,0,0-5.9,2.71,11.55,11.55,0,0,0-1.87,5.12,4.13,4.13,0,0,0-.18,1.48,2,2,0,0,0,1,.08h6.41c.67,0,.68,0,.57.63-.47,2.53-.95,5.06-1.4,7.6-.08.44-.28.56-.72.56-2.28,0-4.57,0-6.85,0-.69,0-.7,0-.84.69q-1.12,5.94-2.26,11.87L287.2,73.62c-.2,1-.42,2-.57,3.06-.07.42-.23.54-.63.53-1.16,0-2.32,0-3.47,0h-7.21Z"/><path d="M125.11,45.29a21.71,21.71,0,0,0-4.76-1.41,10.72,10.72,0,0,0-4.58.1,5.23,5.23,0,0,0-2.25,1.2,3.26,3.26,0,0,0-.36,4.5,7.41,7.41,0,0,0,2,1.74c1,.62,2,1.19,3,1.8a20.17,20.17,0,0,1,4.22,3.37,10,10,0,0,1,2.71,8.5c-.66,5.62-3.83,9.24-9,11.25a24.72,24.72,0,0,1-13,1.18,20.22,20.22,0,0,1-5.69-1.66c-.51-.24-1.16-.41-1.41-.87s.21-1,.39-1.56c.71-2,1.45-4.07,2.17-6.1a.87.87,0,0,1,.27-.46,20.34,20.34,0,0,0,8.44,2.49,9.37,9.37,0,0,0,3.17-.28,3.76,3.76,0,0,0,2.19-5.86,7.46,7.46,0,0,0-2-1.93c-.93-.69-2-1.22-2.94-1.82A19.24,19.24,0,0,1,103.52,56,10.32,10.32,0,0,1,101,46.13c1-4.36,3.83-7.25,7.81-9.1a20,20,0,0,1,7.65-1.78,24.27,24.27,0,0,1,10.13,1.43l.25.1c.88.36.88.36.59,1.25-.71,2.23-1.41,4.46-2.12,6.69C125.27,44.88,125.2,45,125.11,45.29Z"/><path d="M272.5,36.27c-.25,1.34-.49,2.67-.74,4Q270.09,49,268.42,57.8l-3.57,18.67c-.14.73-.14.73-.91.73H253.62c-.57,0-.59,0-.49-.63.18-1,.39-2,.58-3q2.1-10.95,4.21-21.89c.95-4.94,1.91-9.88,2.84-14.83.08-.4.17-.63.66-.62,3.58,0,7.17,0,10.76,0A2.42,2.42,0,0,1,272.5,36.27Z"/><path d="M269.1,18.69a6.41,6.41,0,0,1,3.16.63,5.3,5.3,0,0,1,2.9,4.67,7.48,7.48,0,0,1-.48,3.31,6,6,0,0,1-3.8,3.61,7.9,7.9,0,0,1-3.86.32,5.16,5.16,0,0,1-4.44-4.35,6.87,6.87,0,0,1,5.34-8.08A6.72,6.72,0,0,1,269.1,18.69Z"/><path class="cls-4" d="M16,69.33c.49.36.87.64,1.24.93a17.84,17.84,0,0,0,6.15,3.1,6.35,6.35,0,0,0,2.81.22A3.73,3.73,0,0,0,29.37,70a5.51,5.51,0,0,0-1.25-3.8,13.59,13.59,0,0,0-2.85-2.66,20.12,20.12,0,0,1-4-3.73,12.05,12.05,0,0,1-2.77-7.62c0-6.35,2.47-11.44,7.78-15a20.21,20.21,0,0,1,9-3.18,27.91,27.91,0,0,1,6.65,0,13.48,13.48,0,0,1,3.69,1c.6.25.62.29.41.93q-1.65,4.92-3.32,9.85c-.22.67-.24.68-.94.37a16.81,16.81,0,0,0-7.88-1.41,6.11,6.11,0,0,0-3.1,1A4.1,4.1,0,0,0,30,52.08a18.15,18.15,0,0,0,3.43,2.67,22.52,22.52,0,0,1,5.59,4.89,13.46,13.46,0,0,1,3,8.37,17.83,17.83,0,0,1-1.91,8.67,12.56,12.56,0,0,1-10.07,7A19.77,19.77,0,0,1,15.71,80a12.08,12.08,0,0,1-1.87-1.63.82.82,0,0,1-.28-.87C14.37,74.81,15.18,72.15,16,69.33Z"/><path class="cls-4" d="M23.9,22.52a24.17,24.17,0,0,1,1-3.24A35.91,35.91,0,0,1,29.55,10,16.54,16.54,0,0,1,36.2,4.29a8.39,8.39,0,0,1,3.68-.89,3.3,3.3,0,0,1,1.88.6c-.47.28-.93.52-1.37.8a16.55,16.55,0,0,0-5.82,6.57,31.53,31.53,0,0,0-2.87,8.28c-.09.4-.17.71-.63.85-2.27.68-4.53,1.4-6.79,2.1A.33.33,0,0,1,23.9,22.52Z"/><path class="cls-4" d="M35.58,19a17.23,17.23,0,0,1,.93-3.1A17,17,0,0,1,41,8.9a11,11,0,0,1,2.42-1.63c.4-.19.58-.13.71.3a20.67,20.67,0,0,1,.83,3.9,29.15,29.15,0,0,1,.23,4.07c0,.41-.1.63-.54.76-2.94.9-5.87,1.82-8.81,2.74C35.82,19.06,35.76,19,35.58,19Z"/><path class="cls-4" d="M47.41,6.44A3,3,0,0,1,49.13,7a7.1,7.1,0,0,1,2.31,2.41,16.76,16.76,0,0,1,1.72,3.78c.08.26.11.46-.21.56L48.63,15A30.33,30.33,0,0,0,47.41,6.44Z"/><path class="cls-4" d="M240.38,52.22a24,24,0,0,1-4.23,13.13,11.26,11.26,0,0,1-2.72,2.79,7.21,7.21,0,0,1-8.11.11,1,1,0,0,1-.48-1.17c.31-1.57.57-3.14.88-4.71.48-2.44.8-4.92,1.44-7.32a18.33,18.33,0,0,1,3.48-7.13,7.42,7.42,0,0,1,3.84-2.74c2.91-.72,4.67.69,5.36,2.78a11.83,11.83,0,0,1,.38,1.56A26,26,0,0,1,240.38,52.22Z"/><path class="cls-4" d="M199,51.16a29.29,29.29,0,0,1-3.58,13.41,9.53,9.53,0,0,1-3.7,3.88,5.11,5.11,0,0,1-7.32-2.57,8.47,8.47,0,0,1-.69-3,26.36,26.36,0,0,1,3.65-14.53,10,10,0,0,1,2.33-2.78,5.73,5.73,0,0,1,4-1.46,5,5,0,0,1,4.77,3.47A9.31,9.31,0,0,1,199,51.16Z"/></g></g></svg>