<svg width="200" height="82" viewBox="0 0 200 82" fill="none" xmlns="http://www.w3.org/2000/svg">
<rect width="200" height="82" rx="14" fill="#DBE9ED"/>
<g clip-path="url(#clip0_1409_1948)">
<path fill-rule="evenodd" clip-rule="evenodd" d="M125.41 38.7253C126.478 39.9048 127.012 41.5072 127.012 43.5362V44.2384C127.012 44.4284 126.943 44.5939 126.805 44.7324C126.742 44.7988 126.665 44.8515 126.581 44.8872C126.497 44.9229 126.406 44.9408 126.314 44.9398H117.426V45.0966C117.46 46.2406 117.809 47.1375 118.473 47.7883C119.135 48.4374 119.992 48.7628 121.043 48.7628C121.904 48.7628 122.572 48.6504 123.045 48.4256C123.53 48.1915 123.965 47.8644 124.325 47.4629C124.462 47.3243 124.587 47.2286 124.7 47.1763C124.811 47.1256 124.962 47.0995 125.151 47.0995H125.926C126.133 47.0995 126.305 47.1684 126.443 47.3069C126.582 47.4455 126.641 47.6101 126.624 47.8017C126.556 48.2688 126.301 48.7509 125.862 49.2441C125.423 49.7381 124.793 50.1546 123.976 50.4926C123.157 50.8306 122.179 51.0001 121.043 51.0001C119.941 51.0001 118.958 50.7436 118.097 50.2321C117.236 49.7212 116.528 48.9896 116.044 48.1128C115.536 47.2119 115.23 46.197 115.126 45.0705C115.097 44.6726 115.08 44.274 115.075 43.8751C115.075 43.5972 115.091 43.1982 115.127 42.6781C115.23 41.6038 115.536 40.6324 116.044 39.7647C116.535 38.9148 117.239 38.207 118.086 37.7103C118.938 37.2084 119.923 36.9567 121.043 36.9567C122.886 36.9567 124.342 37.5465 125.41 38.7253V38.7253ZM124.686 42.7556V42.6781C124.686 41.6204 124.354 40.7757 123.692 40.1423C123.028 39.509 122.145 39.1939 121.043 39.1939C120.044 39.1939 119.196 39.5146 118.499 40.155C117.801 40.7963 117.443 41.6378 117.426 42.6781V42.7556H124.686ZM132.969 47.5009C133.039 47.5681 133.094 47.6488 133.131 47.7381C133.169 47.8274 133.187 47.9234 133.186 48.0202V49.849C133.187 49.9457 133.169 50.0415 133.131 50.1307C133.094 50.2199 133.038 50.3005 132.969 50.3675C132.902 50.4375 132.822 50.4931 132.733 50.5308C132.644 50.5685 132.549 50.5876 132.452 50.5868H130.629C130.532 50.5876 130.436 50.5686 130.348 50.5309C130.259 50.4932 130.178 50.4375 130.112 50.3675C130.042 50.3006 129.987 50.2201 129.949 50.1309C129.911 50.0417 129.893 49.9457 129.894 49.849V48.0202C129.894 47.8199 129.966 47.6466 130.112 47.5009C130.179 47.431 130.259 47.3755 130.348 47.3379C130.437 47.3003 130.532 47.2814 130.629 47.2824H132.452C132.549 47.2814 132.644 47.3004 132.733 47.3379C132.822 47.3755 132.902 47.431 132.969 47.5009V47.5009ZM155.003 44.0041C155.003 44.4197 154.985 44.8195 154.951 45.2011C154.795 46.9689 154.188 48.3773 153.126 49.427C152.064 50.4752 150.627 51.0001 148.815 51.0001C147.003 51.0001 145.567 50.4752 144.505 49.427C143.443 48.3773 142.836 46.9689 142.68 45.2011C142.662 45.0095 142.654 44.6113 142.654 44.0041C142.654 43.3628 142.662 42.9472 142.68 42.7556C142.817 40.9871 143.422 39.5795 144.492 38.5297C145.562 37.4816 147.003 36.9567 148.815 36.9567C150.627 36.9567 152.068 37.4816 153.139 38.5297C154.209 39.5795 154.813 40.9871 154.951 42.7556C154.985 43.1372 155.003 43.5536 155.003 44.0041V44.0041ZM151.495 40.2073C150.865 39.5312 149.971 39.1931 148.815 39.1931C147.659 39.1931 146.765 39.5312 146.136 40.2073C145.506 40.8833 145.139 41.7763 145.036 42.8855C145.018 43.0937 145.009 43.4673 145.009 44.0041C145.009 44.525 145.018 44.8797 145.036 45.0705C145.139 46.1804 145.506 47.0734 146.136 47.7495C146.765 48.4256 147.659 48.7628 148.815 48.7628C149.971 48.7628 150.865 48.4256 151.495 47.7495C152.125 47.0734 152.492 46.1804 152.595 45.0705C152.63 44.6889 152.647 44.3342 152.647 44.0041C152.647 43.6748 152.63 43.3019 152.595 42.8855C152.492 41.7771 152.125 40.8833 151.495 40.2073H151.495ZM138.894 50.3778C138.83 50.4448 138.754 50.4979 138.669 50.5339C138.584 50.5698 138.492 50.5878 138.4 50.5868H137.441C137.349 50.588 137.257 50.57 137.172 50.534C137.087 50.4981 137.01 50.4449 136.947 50.3778C136.88 50.3134 136.827 50.2359 136.792 50.1503C136.756 50.0647 136.738 49.9726 136.74 49.8798V37.6818C136.74 37.4895 136.809 37.3232 136.947 37.1831C137.011 37.1163 137.087 37.0633 137.172 37.0275C137.257 36.9917 137.349 36.9737 137.441 36.9749H138.4C138.492 36.9739 138.584 36.9919 138.668 37.0277C138.753 37.0635 138.83 37.1164 138.894 37.1831C138.96 37.2478 139.013 37.3254 139.049 37.4112C139.084 37.4969 139.102 37.589 139.101 37.6818V49.8798C139.102 49.9726 139.084 50.0646 139.049 50.1502C139.013 50.2359 138.96 50.3133 138.894 50.3778V50.3778ZM138.661 34.9055H137.181C137.089 34.9064 136.998 34.8882 136.913 34.8521C136.828 34.816 136.752 34.7627 136.689 34.6957C136.622 34.6314 136.569 34.5542 136.533 34.4687C136.497 34.3832 136.479 34.2912 136.48 34.1985V32.707C136.48 32.5154 136.55 32.3492 136.689 32.2098C136.752 32.1429 136.829 32.0897 136.913 32.0536C136.998 32.0175 137.089 31.9993 137.181 32.0001H138.661C138.851 32.0001 139.016 32.0697 139.153 32.2098C139.22 32.2742 139.273 32.3515 139.309 32.437C139.344 32.5225 139.362 32.6143 139.361 32.707V34.1993C139.362 34.292 139.344 34.3839 139.309 34.4694C139.273 34.5549 139.22 34.6321 139.153 34.6965C139.09 34.7635 139.014 34.8167 138.929 34.8528C138.844 34.8889 138.753 34.9071 138.661 34.9063V34.9055ZM111.565 50.3778C111.497 50.4454 111.416 50.4986 111.327 50.5345C111.239 50.5704 111.144 50.5882 111.048 50.5868H110.045C109.95 50.5883 109.855 50.5705 109.766 50.5346C109.677 50.4987 109.597 50.4454 109.529 50.3778C109.46 50.3147 109.405 50.2378 109.368 50.152C109.33 50.0662 109.312 49.9734 109.312 49.8798V32.707C109.312 32.5154 109.384 32.3492 109.529 32.2098C109.597 32.1423 109.678 32.0889 109.766 32.0528C109.855 32.0168 109.95 31.9989 110.045 32.0001H111.049C111.144 31.9989 111.24 32.0169 111.328 32.0529C111.417 32.0889 111.498 32.1423 111.566 32.2098C111.634 32.273 111.689 32.3499 111.726 32.4356C111.763 32.5212 111.782 32.6136 111.782 32.707V49.8798C111.782 50.0722 111.71 50.2385 111.566 50.3778H111.565ZM65.9456 40.8572C65.9456 40.1471 66.1403 39.4963 66.5304 38.9073C66.9198 38.3183 67.5006 37.8449 68.2714 37.4903C69.043 37.134 69.9871 36.9567 71.1037 36.9567C72.2021 36.9567 73.151 37.1126 73.9487 37.4246C74.7464 37.7365 75.3534 38.1268 75.7696 38.5962C76.1859 39.0633 76.3948 39.5146 76.3948 39.9476C76.3948 40.121 76.3236 40.2722 76.1811 40.402C76.045 40.5305 75.8642 40.6009 75.677 40.5983H74.7994C74.4623 40.5983 74.1964 40.4764 74.0017 40.2334C73.4517 39.5399 72.4862 39.1931 71.1037 39.1931C70.2886 39.1931 69.6278 39.3404 69.1229 39.6349C68.6172 39.9302 68.3648 40.3371 68.3648 40.8572C68.3648 41.2911 68.4882 41.6204 68.7367 41.8468C68.9852 42.0708 69.3572 42.2529 69.8541 42.3915C70.3495 42.5308 71.2272 42.739 72.4862 43.0161C74.046 43.3454 75.1531 43.8489 75.81 44.525C76.4652 45.2011 76.7936 46.0236 76.7936 46.995C76.7936 47.7059 76.5665 48.3646 76.1154 48.971C75.6636 49.5782 75.0154 50.0675 74.1742 50.4403C73.3322 50.8124 72.3533 51.0001 71.2367 51.0001C70.1367 51.0001 69.1664 50.8306 68.3244 50.4926C67.4832 50.1546 66.8311 49.7429 66.3705 49.2576C65.9092 48.7723 65.6797 48.3123 65.6797 47.8785C65.6797 47.7059 65.7501 47.5539 65.8926 47.4241C66.029 47.2956 66.2101 47.2255 66.3975 47.2286H67.355C67.5133 47.2286 67.6557 47.246 67.78 47.2808C67.9034 47.3156 68.019 47.4106 68.1258 47.5666C68.7106 48.3646 69.7481 48.7628 71.2359 48.7628C72.0692 48.7628 72.8004 48.5942 73.4303 48.2561C74.0587 47.9181 74.3736 47.4977 74.3736 46.9942C74.3736 46.5786 74.2185 46.2453 73.9083 45.9936C73.5981 45.7426 73.151 45.5344 72.5662 45.3689C71.9805 45.2051 71.0673 44.9921 69.828 44.7324C67.2387 44.1949 65.9456 42.9037 65.9456 40.8572V40.8572ZM83.8518 37.0335C84.371 36.7073 85.0634 36.5434 85.9292 36.5434C87.9551 36.5434 89.3748 37.3113 90.1883 38.8488C90.69 38.107 91.2614 37.537 91.9024 37.1396C92.5434 36.7421 93.3831 36.5434 94.4213 36.5434C96.118 36.5434 97.3771 37.0651 98.2001 38.107C99.0215 39.1488 99.4331 40.6245 99.4331 42.5324V49.8711C99.4344 49.9648 99.4166 50.0578 99.381 50.1445C99.3454 50.2312 99.2925 50.3097 99.2257 50.3754C99.1625 50.4429 99.086 50.4965 99.001 50.5329C98.916 50.5693 98.8244 50.5876 98.7319 50.5868H97.7712C97.6788 50.5879 97.5873 50.5696 97.5024 50.5332C97.4175 50.4968 97.3411 50.4431 97.2782 50.3754C97.2113 50.3099 97.1583 50.2315 97.1225 50.145C97.0868 50.0585 97.0689 49.9656 97.07 49.8719V42.7968C97.07 40.1471 96.0484 38.8226 94.0067 38.8226C93.0705 38.8226 92.3266 39.1401 91.7726 39.7758C91.2187 40.4123 90.9417 41.3568 90.9417 42.6116V49.8711C90.9428 49.9648 90.925 50.0578 90.8894 50.1444C90.8538 50.2311 90.801 50.3096 90.7344 50.3754C90.6712 50.443 90.5947 50.4966 90.5097 50.533C90.4246 50.5694 90.333 50.5877 90.2405 50.5868H89.279C89.1868 50.5878 89.0954 50.5695 89.0106 50.5331C88.9258 50.4967 88.8496 50.443 88.7868 50.3754C88.7197 50.31 88.6667 50.2316 88.6307 50.1451C88.5948 50.0586 88.5769 49.9656 88.5779 49.8719V42.7968C88.5779 40.1471 87.557 38.8226 85.5153 38.8226C84.5791 38.8226 83.8352 39.1401 83.2805 39.7758C82.7265 40.4123 82.4495 41.3568 82.4495 42.6116V49.8711C82.4507 49.9648 82.4329 50.0578 82.3972 50.1444C82.3616 50.2311 82.3089 50.3096 82.2422 50.3754C82.179 50.443 82.1025 50.4966 82.0175 50.533C81.9325 50.5694 81.8408 50.5877 81.7484 50.5868H80.7885C80.6961 50.5879 80.6045 50.5697 80.5196 50.5333C80.4347 50.4969 80.3583 50.4431 80.2954 50.3754C80.2285 50.3099 80.1756 50.2315 80.1398 50.145C80.104 50.0585 80.0862 49.9656 80.0873 49.8719V37.5243C80.0863 37.4306 80.1042 37.3376 80.14 37.2509C80.1757 37.1643 80.2286 37.0857 80.2954 37.02C80.3585 36.9526 80.4349 36.899 80.5198 36.8626C80.6046 36.8262 80.6961 36.8078 80.7885 36.8086H81.7492C81.9399 36.8086 82.1045 36.8799 82.243 37.02C82.3807 37.1617 82.4503 37.3296 82.4503 37.5243V38.3445C82.8658 37.7982 83.3335 37.3612 83.8526 37.0335H83.8518ZM105.14 50.3778C105.076 50.4447 105 50.4977 104.915 50.5337C104.83 50.5697 104.739 50.5877 104.647 50.5868H103.687C103.595 50.5879 103.503 50.5699 103.418 50.5339C103.333 50.4979 103.257 50.4448 103.194 50.3778C103.127 50.3134 103.074 50.2359 103.038 50.1503C103.003 50.0647 102.985 49.9726 102.986 49.8798V37.6818C102.986 37.4895 103.055 37.3232 103.194 37.1831C103.257 37.1164 103.334 37.0635 103.418 37.0276C103.503 36.9918 103.595 36.9739 103.687 36.9749H104.647C104.739 36.9739 104.83 36.9919 104.915 37.0277C105 37.0635 105.077 37.1164 105.14 37.1831C105.207 37.2479 105.259 37.3255 105.295 37.4113C105.33 37.497 105.348 37.589 105.347 37.6818V49.8798C105.348 49.9725 105.331 50.0645 105.295 50.1501C105.26 50.2358 105.207 50.3132 105.14 50.3778H105.14ZM105.399 34.6965C105.336 34.7635 105.26 34.8167 105.175 34.8528C105.09 34.8889 104.999 34.9071 104.907 34.9063H103.427C103.335 34.9073 103.243 34.8892 103.159 34.8531C103.074 34.8169 102.997 34.7636 102.934 34.6965C102.867 34.6321 102.815 34.5549 102.779 34.4694C102.743 34.3839 102.725 34.292 102.726 34.1993V32.707C102.726 32.5154 102.796 32.3492 102.934 32.2098C102.997 32.1428 103.074 32.0896 103.159 32.0535C103.244 32.0174 103.335 31.9992 103.427 32.0001H104.907C105.097 32.0001 105.261 32.0697 105.399 32.2098C105.466 32.2742 105.519 32.3515 105.554 32.437C105.59 32.5225 105.608 32.6143 105.607 32.707V34.1993C105.608 34.292 105.59 34.3839 105.555 34.4694C105.519 34.5549 105.466 34.6321 105.399 34.6965V34.6965Z" fill="#3B434A"/>
<path fill-rule="evenodd" clip-rule="evenodd" d="M56.7019 40.2618H55.7388C55.6471 40.2603 55.556 40.2773 55.4709 40.3117C55.3858 40.3461 55.3084 40.3973 55.2435 40.4621C55.1176 40.584 55.0393 40.7281 55.0345 40.892C55.0314 40.9925 55.0171 41.5799 54.9823 41.9504C54.8786 43.0263 54.5091 43.8908 53.8744 44.5455C53.2453 45.1963 52.3558 45.5232 51.2051 45.5288C50.0529 45.524 49.1626 45.1963 48.5327 44.5455C47.8988 43.8908 47.5292 43.0255 47.4247 41.9504C47.3907 41.5799 47.3757 40.9925 47.3733 40.892C47.3686 40.7281 47.2894 40.584 47.1636 40.4621C47.0986 40.3973 47.0213 40.3461 46.9362 40.3117C46.8511 40.2773 46.76 40.2603 46.6682 40.2618H45.7043C45.6124 40.2604 45.5212 40.2774 45.436 40.3118C45.3508 40.3462 45.2733 40.3973 45.2081 40.4621C45.0823 40.584 45 40.7043 45 40.9165C45 40.9165 45.034 41.8823 45.0522 42.0755C45.2081 43.7903 45.8206 45.1551 46.8898 46.1716C47.9486 47.1794 49.3794 47.6868 51.1814 47.6963H51.2241C53.0268 47.6868 54.4568 47.1794 55.5157 46.1716C56.5856 45.1551 57.1973 43.7903 57.354 42.0755C57.3722 41.8823 57.4063 40.9165 57.4063 40.9165C57.4063 40.7043 57.3232 40.584 57.1981 40.4621C57.133 40.3973 57.0555 40.3462 56.9703 40.3118C56.8851 40.2774 56.7938 40.2604 56.7019 40.2618V40.2618Z" fill="#3B434A"/>
</g>
<defs>
<clipPath id="clip0_1409_1948">
<rect width="110" height="19" fill="white" transform="translate(45 32)"/>
</clipPath>
</defs>
</svg>
