<svg width="200" height="82" viewBox="0 0 200 82" fill="none" xmlns="http://www.w3.org/2000/svg">
<rect width="200" height="82" rx="14" fill="#DBE9ED"/>
<path d="M100.342 67.032C114.226 67.032 125.482 55.4276 125.482 41.1127C125.482 26.7978 114.226 15.1934 100.342 15.1934C86.4583 15.1934 75.2031 26.7978 75.2031 41.1127C75.2031 55.4276 86.4583 67.032 100.342 67.032Z" fill="#3B434A"/>
<path d="M86.2891 31.0781H89.2511L91.5296 35.2587L93.7321 31.0781H96.5422L92.8207 37.767V41.3394H90.0865V37.843L86.2891 31.0781Z" fill="white"/>
<path d="M95.707 36.2466C95.707 33.1302 98.2134 31.002 101.099 31.002C103.986 31.002 106.492 33.2062 106.492 36.2466C106.492 39.363 103.986 41.5673 101.099 41.5673C98.2134 41.4913 95.707 39.363 95.707 36.2466ZM103.682 36.2466C103.682 34.6504 102.694 33.3583 101.023 33.3583C99.3526 33.3583 98.3653 34.6504 98.3653 36.2466C98.3653 37.8428 99.3526 39.135 101.023 39.135C102.77 39.135 103.682 37.8428 103.682 36.2466Z" fill="white"/>
<path d="M108.998 33.3584H106.34V31.0781H114.39V33.3584H111.732V41.3394H108.998V33.3584Z" fill="white"/>
<path d="M89.7832 52.5894H87.125V42.3281H90.9225C93.6566 42.3281 95.1756 44.0763 95.1756 46.3566C95.1756 48.6369 93.6566 50.3852 90.9225 50.3852H89.7832V52.5894ZM90.7706 48.0289C91.9858 48.0289 92.4415 47.3448 92.4415 46.3566C92.4415 45.3685 91.9858 44.6084 90.7706 44.6084H89.7832V48.0289H90.7706Z" fill="white"/>
<path d="M95.6289 47.4966C95.6289 44.3802 98.1352 42.252 101.021 42.252C103.907 42.252 106.414 44.4562 106.414 47.4966C106.414 50.613 103.907 52.8173 101.021 52.8173C98.1352 52.7413 95.6289 50.613 95.6289 47.4966ZM103.68 47.4966C103.68 45.9004 102.692 44.6083 101.021 44.6083C99.3504 44.6083 98.3631 45.9004 98.3631 47.4966C98.3631 49.0928 99.3504 50.385 101.021 50.385C102.692 50.385 103.68 49.0928 103.68 47.4966Z" fill="white"/>
<path d="M106.414 51.2956C106.414 50.3835 107.098 49.7754 107.857 49.7754C108.617 49.7754 109.3 50.3835 109.3 51.2956C109.3 52.2077 108.617 52.8158 107.857 52.8158C107.098 52.7398 106.414 52.1317 106.414 51.2956Z" fill="white"/>
</svg>
